<?xml version="1.0" encoding="UTF-8" standalone="no"?>
<!DOCTYPE svg PUBLIC "-//W3C//DTD SVG 1.0//EN" "http://www.w3.org/TR/2001/REC-SVG-20010904/DTD/svg10.dtd">
<!-- Создано Microsoft Visio 11.0, Экспорт SVG, версия 1.0 masks.svg Страница-1 -->
<svg xmlns="http://www.w3.org/2000/svg" xmlns:xlink="http://www.w3.org/1999/xlink" xmlns:ev="http://www.w3.org/2001/xml-events"
		xmlns:v="http://schemas.microsoft.com/visio/2003/SVGExtensions/" width="1.94424in" height="2.51894in"
		viewBox="0 0 139.985 181.364" xml:space="preserve" color-interpolation-filters="sRGB" class="st8">
	<v:documentProperties v:langID="1049" v:metric="true" v:viewMarkup="false"/>

	<style type="text/css">
	<![CDATA[
		.st1 {visibility:visible}
		.st2 {fill:#cdcdcd;fill-opacity:0.5;stroke:#cdcdcd;stroke-linecap:round;stroke-linejoin:round;stroke-opacity:0.5;stroke-width:0.25}
		.st3 {fill:url(#grad30-7);stroke:#404040;stroke-linecap:round;stroke-linejoin:round;stroke-width:0.25}
		.st4 {fill:url(#grad30-11);stroke:#000000;stroke-linecap:round;stroke-linejoin:round;stroke-width:0.25}
		.st5 {fill:url(#grad30-11);stroke:none;stroke-linecap:round;stroke-linejoin:round;stroke-width:0.25}
		.st6 {fill:url(#grad30-48);stroke:none;stroke-linecap:round;stroke-linejoin:round;stroke-width:0.25}
		.st7 {fill:#fbf7f0;stroke:#000000;stroke-linecap:round;stroke-linejoin:round;stroke-width:0.25}
		.st8 {fill:none;fill-rule:evenodd;font-size:12;overflow:visible;stroke-linecap:square;stroke-miterlimit:3}
	]]>
	</style>

	<defs id="Patterns_And_Gradients">
		<linearGradient id="grad30-7" v:fillPattern="30" v:foreground="#d0a691" v:background="#d9b7a6" x1="0" y1="1" x2="0" y2="0">
			<stop offset="0" style="stop-color:#d0a691;stop-opacity:1"/>
			<stop offset="1" style="stop-color:#d9b7a6;stop-opacity:1"/>
		</linearGradient>
		<linearGradient id="grad30-11" v:fillPattern="30" v:foreground="#000000" v:background="#000000" x1="0" y1="1" x2="0" y2="0">
			<stop offset="0" style="stop-color:#000000;stop-opacity:1"/>
			<stop offset="1" style="stop-color:#000000;stop-opacity:1"/>
		</linearGradient>
		<linearGradient id="grad30-48" v:fillPattern="30" v:foreground="#ba9f8d" v:background="#c5afa0" x1="0" y1="1" x2="0" y2="0">
			<stop offset="0" style="stop-color:#ba9f8d;stop-opacity:1"/>
			<stop offset="1" style="stop-color:#c5afa0;stop-opacity:1"/>
		</linearGradient>
	</defs>
	<g v:mID="0" v:index="1" v:groupContext="foregroundPage">
		<title>Страница-1</title>
		<v:pageProperties v:drawingScale="0.0393701" v:pageScale="0.0393701" v:drawingUnits="24" v:shadowOffsetX="8.50394"
				v:shadowOffsetY="-8.50394"/>
		<g id="group53-1" transform="translate(0.25,-1.44)" v:mID="53" v:groupContext="group">
			<v:userDefs>
				<v:ud v:nameU="msvThemeColors" v:val="VT0(36):26"/>
				<v:ud v:nameU="msvThemeEffects" v:val="VT0(16):26"/>
			</v:userDefs>
			<title>Лист.53</title>
			<g id="shape2-2" v:mID="2" v:groupContext="shape" transform="translate(3.44988,-8.16068)">
				<title>Лист.2</title>
				<v:userDefs>
					<v:ud v:nameU="msvThemeColors" v:val="VT0(36):26"/>
					<v:ud v:nameU="msvThemeEffects" v:val="VT0(16):26"/>
				</v:userDefs>
				<g id="shadow2-3" v:groupContext="shadow" v:shadowOffsetX="1.44" v:shadowOffsetY="-1.44" v:shadowType="1"
						transform="matrix(1,0,0,1,1.44,1.44)" class="st1">
					<path d="M27.25 181.36 C47.24 178.14 63.91 171.76 77.59 163.06 C90.54 154.83 100.82 144.53 108.1 129.5 C115.75
								 113.7 120.07 92.68 116.24 73.56 C113.87 61.8 108.42 50.76 99.46 43.56 C89.13 35.28 74.14 32.1 60.3
								 33.9 C48.19 35.47 36.96 40.86 27.76 46.61 C21.42 50.58 16.04 54.72 12 60.34 C8.02 65.86 5.33 72.81
								 3.35 80.68 C0.35 92.65 -0.98 106.75 0.81 118.82 C2.77 132.04 8.48 142.82 12 156.96 C14.68 167.77
								 16.09 180.55 27.25 181.36 Z" class="st2"/>
				</g>
				<path d="M27.25 181.36 C47.24 178.14 63.91 171.76 77.59 163.06 C90.54 154.83 100.82 144.53 108.1 129.5 C115.75 113.7
							 120.07 92.68 116.24 73.56 C113.87 61.8 108.42 50.76 99.46 43.56 C89.13 35.28 74.14 32.1 60.3 33.9 C48.19
							 35.47 36.96 40.86 27.76 46.61 C21.42 50.58 16.04 54.72 12 60.34 C8.02 65.86 5.33 72.81 3.35 80.68 C0.35
							 92.65 -0.98 106.75 0.81 118.82 C2.77 132.04 8.48 142.82 12 156.96 C14.68 167.77 16.09 180.55 27.25 181.36
							 Z" class="st3"/>
			</g>
			<g id="shape4-8" v:mID="4" v:groupContext="shape" transform="translate(61.4615,-67.5391)">
				<title>Лист.4</title>
				<v:userDefs>
					<v:ud v:nameU="msvThemeColors" v:val="VT0(36):26"/>
					<v:ud v:nameU="msvThemeEffects" v:val="VT0(16):26"/>
				</v:userDefs>
				<path d="M15 179.72 C18.65 169.43 15.81 159.05 15 150.23 C21.89 148.89 31.02 145.63 36.36 141.33 C38.46 139.64 39.97
							 137.79 41.95 135.99 C45.03 133.21 49.23 130.58 48.05 124.81 C40.24 121.14 19.78 118.62 10.93 124.3 C9.64
							 125.13 8.6 126.13 7.63 127.35 C2.75 133.48 -0.09 144.95 0 154.81 C0.06 161.83 1.61 168.04 4.32 173.62
							 C6.57 178.25 9.61 182.46 14.49 181.25 C15.3 181.05 16.16 180.7 15 179.72 Z" class="st4"/>
			</g>
			<g id="shape5-12" v:mID="5" v:groupContext="shape" transform="translate(17.6254,-105.014)">
				<title>Лист.5</title>
				<v:userDefs>
					<v:ud v:nameU="msvThemeColors" v:val="VT0(36):26"/>
					<v:ud v:nameU="msvThemeEffects" v:val="VT0(16):26"/>
				</v:userDefs>
				<path d="M30.96 181.36 C31.39 181.1 31.39 180.71 31.38 180.33 C31.25 175.52 28.64 172.82 25.79 170.42 C21.11 166.47
							 15.8 163.31 7.99 162.79 C6.5 167.69 8.58 171.28 7.99 176.52 C-3.73 172.63 -1.69 153.23 8.5 148.55 C12.9
							 146.53 18.82 147.26 22.99 149.57 C28.15 152.43 30.62 157.71 31.89 163.55 C33.15 169.37 33.24 175.74
							 30.96 181.36 Z" class="st4"/>
			</g>
			<g id="shape3-15" v:mID="3" v:groupContext="shape" transform="translate(179.277,35.4486) rotate(70)">
				<title>Лист.3</title>
				<v:userDefs>
					<v:ud v:nameU="msvThemeColors" v:val="VT0(36):26"/>
					<v:ud v:nameU="msvThemeEffects" v:val="VT0(16):26"/>
				</v:userDefs>
				<path d="M0 179.76 C6.3 184.76 22.5 178.63 35.23 168.71 C42.54 163.01 48.7 156.06 55.51 146.25 C60.95 138.41 66.81
							 128.73 62.36 105.05 C60.9 128.25 57.61 131.6 54.22 135.98 C50.06 141.34 45.74 148.24 38.69 154.5 C30.47
							 161.79 18.52 168.23 12.34 172.29 C7.63 175.4 6.28 177.13 -0 179.76 Z" class="st5"/>
			</g>
			<g id="shape7-18" v:mID="7" v:groupContext="shape" transform="translate(18.4961,-32.5682)">
				<title>Лист.7</title>
				<v:userDefs>
					<v:ud v:nameU="msvThemeColors" v:val="VT0(36):26"/>
					<v:ud v:nameU="msvThemeEffects" v:val="VT0(16):26"/>
				</v:userDefs>
				<path d="M5.08 181.36 C9.4 170.83 11.14 161.24 18.8 150.75 C13.94 156.59 17.85 150.05 16.54 149.08 C11.24 156.56
							 7.13 169.13 0 177.3 C2.56 174.43 1.67 176.85 1.56 178.11 C1.23 181.64 6.87 176.12 5.08 181.36 Z"
						class="st5"/>
			</g>
			<g id="shape8-21" v:mID="8" v:groupContext="shape" transform="translate(6.6152,-18.0944) rotate(-8.6)">
				<title>Лист.8</title>
				<v:userDefs>
					<v:ud v:nameU="msvThemeColors" v:val="VT0(36):26"/>
					<v:ud v:nameU="msvThemeEffects" v:val="VT0(16):26"/>
				</v:userDefs>
				<path d="M5.08 181.36 C9.4 170.83 11.14 161.24 18.8 150.75 C13.94 156.59 17.85 150.05 16.54 149.08 C11.24 156.56
							 7.13 169.13 0 177.3 C2.56 174.43 1.67 176.85 1.56 178.11 C1.23 181.64 6.87 176.12 5.08 181.36 Z"
						class="st5"/>
			</g>
			<g id="shape9-24" v:mID="9" v:groupContext="shape" transform="translate(4.25841,-46.934)">
				<title>Лист.9</title>
				<v:userDefs>
					<v:ud v:nameU="msvThemeColors" v:val="VT0(36):26"/>
					<v:ud v:nameU="msvThemeEffects" v:val="VT0(16):26"/>
				</v:userDefs>
				<path d="M5.08 181.36 C9.4 170.83 11.14 161.24 18.8 150.75 C13.94 156.59 17.85 150.05 16.54 149.08 C11.24 156.56
							 7.13 169.13 0 177.3 C2.56 174.43 1.67 176.85 1.56 178.11 C1.23 181.64 6.87 176.12 5.08 181.36 Z"
						class="st5"/>
			</g>
			<g id="shape10-27" v:mID="10" v:groupContext="shape" transform="translate(11.2142,-10.0865) rotate(-11.3)">
				<title>Лист.10</title>
				<v:userDefs>
					<v:ud v:nameU="msvThemeColors" v:val="VT0(36):26"/>
					<v:ud v:nameU="msvThemeEffects" v:val="VT0(16):26"/>
				</v:userDefs>
				<path d="M5.08 181.36 C6.96 170.59 11.14 161.24 22.59 147.99 C13.94 156.59 20.88 140.27 16.54 149.08 C11.24 156.56
							 7.13 169.13 0 177.3 C2.56 174.43 1.67 176.85 1.56 178.11 C1.23 181.64 6.87 176.12 5.08 181.36 Z"
						class="st5"/>
			</g>
			<g id="shape11-30" v:mID="11" v:groupContext="shape" transform="translate(33.4878,-13.3984) rotate(-8.6)">
				<title>Лист.11</title>
				<v:userDefs>
					<v:ud v:nameU="msvThemeColors" v:val="VT0(36):26"/>
					<v:ud v:nameU="msvThemeEffects" v:val="VT0(16):26"/>
				</v:userDefs>
				<path d="M5.08 181.36 C9.4 170.83 11.14 161.24 18.8 150.75 C13.94 156.59 17.85 150.05 16.54 149.08 C11.24 156.56
							 7.13 169.13 0 177.3 C2.56 174.43 1.67 176.85 1.56 178.11 C1.23 181.64 6.87 176.12 5.08 181.36 Z"
						class="st5"/>
			</g>
			<g id="shape12-33" v:mID="12" v:groupContext="shape" transform="translate(11.1969,-4.74946) rotate(-25)">
				<title>Лист.12</title>
				<v:userDefs>
					<v:ud v:nameU="msvThemeColors" v:val="VT0(36):26"/>
					<v:ud v:nameU="msvThemeEffects" v:val="VT0(16):26"/>
				</v:userDefs>
				<path d="M5.08 181.36 C9.4 170.83 11.14 161.24 18.8 150.75 C13.94 156.59 17.85 150.05 16.54 149.08 C11.24 156.56
							 7.13 169.13 0 177.3 C2.56 174.43 1.67 176.85 1.56 178.11 C1.23 181.64 6.87 176.12 5.08 181.36 Z"
						class="st5"/>
			</g>
			<g id="shape13-36" v:mID="13" v:groupContext="shape" transform="translate(-2.0238,2.94341) rotate(-25)">
				<title>Лист.13</title>
				<v:userDefs>
					<v:ud v:nameU="msvThemeColors" v:val="VT0(36):26"/>
					<v:ud v:nameU="msvThemeEffects" v:val="VT0(16):26"/>
				</v:userDefs>
				<path d="M5.08 181.36 C9.4 170.83 11.14 161.24 18.8 150.75 C13.94 156.59 17.85 150.05 16.54 149.08 C11.24 156.56
							 7.13 169.13 0 177.3 C2.56 174.43 1.67 176.85 1.56 178.11 C1.23 181.64 6.87 176.12 5.08 181.36 Z"
						class="st5"/>
			</g>
			<g id="shape14-39" v:mID="14" v:groupContext="shape" transform="translate(31.9956,-16.1395) rotate(-15)">
				<title>Лист.14</title>
				<v:userDefs>
					<v:ud v:nameU="msvThemeColors" v:val="VT0(36):26"/>
					<v:ud v:nameU="msvThemeEffects" v:val="VT0(16):26"/>
				</v:userDefs>
				<path d="M5.08 181.36 C9.4 170.83 11.14 161.24 18.8 150.75 C13.94 156.59 17.85 150.05 16.54 149.08 C11.24 156.56
							 7.13 169.13 0 177.3 C2.56 174.43 1.67 176.85 1.56 178.11 C1.23 181.64 6.87 176.12 5.08 181.36 Z"
						class="st5"/>
			</g>
			<g id="shape15-42" v:mID="15" v:groupContext="shape" transform="translate(50.5034,-57.6838)">
				<title>Круг</title>
				<v:userDefs>
					<v:ud v:nameU="visVersion" v:val="VT0(14):26"/>
					<v:ud v:nameU="msvThemeColors" v:val="VT0(36):26"/>
					<v:ud v:nameU="msvThemeEffects" v:val="VT0(16):26"/>
				</v:userDefs>
				<path d="M0 146.28 A35.0858 35.0858 0 1 1 70.17 146.28 A35.0858 35.0858 0 1 1 0 146.28 Z" class="st5"/>
			</g>
			<g id="shape1-45" v:mID="1" v:groupContext="shape" transform="translate(26.3237,-0.106529)">
				<title>Лист.1</title>
				<v:userDefs>
					<v:ud v:nameU="msvThemeColors" v:val="VT0(36):26"/>
					<v:ud v:nameU="msvThemeEffects" v:val="VT0(16):26"/>
				</v:userDefs>
				<path d="M0 181.36 C20.65 179.41 49.69 170.41 72.37 151.25 C85.38 140.25 96.29 125.92 103.03 111.81 C108.43 100.54
							 111.16 89.41 111.97 72.72 C110.14 83.82 106.2 93.78 101.14 103.97 C94.93 116.46 87.04 129.29 75.04 140.1
							 C61.06 152.7 41.48 162.55 27.52 166.74 C16.85 169.94 9.46 169.84 -0 181.36 Z" class="st6"/>
			</g>
			<g id="group52-49" v:mID="52" v:groupContext="group">
				<v:userDefs>
					<v:ud v:nameU="msvThemeColors" v:val="VT0(36):26"/>
					<v:ud v:nameU="msvThemeEffects" v:val="VT0(16):26"/>
				</v:userDefs>
				<title>Лист.52</title>
				<g id="shape6-50" v:mID="6" v:groupContext="shape">
					<title>Лист.6</title>
					<path d="M22.68 55.91 C33.54 55.18 44.97 61.16 48.03 71.34 C48.75 73.74 49.01 76.37 48.06 77.78 C45.67 81.34
								 35.67 77.26 30.29 72.87 C24.16 67.88 24.01 62.47 22.68 55.91 ZM97.12 94.33 C89.44 92.78 79.03 101.13
								 74.77 111.91 C74.74 99.42 75.54 88.02 71.51 79.54 C82.73 81.08 90.81 68.77 103.81 61.61 C94.53 73.9
								 93 78.85 96.57 88.29 C97.29 90.2 98.22 92.29 97.12 94.33 ZM14.14 118.87 C14.25 118.39 14.37 117.91
								 14.51 117.44 C15.19 115.07 16.25 112.72 17.75 110.43 C21.04 114.31 25.04 118.16 29.66 121.68 C29.64
								 121.73 29.63 121.78 29.61 121.83 C28.38 126.13 25.74 130.4 21.4 134.24 C18.57 129.59 16.06 124.53
								 14.14 118.87 ZM25.2 140 C27.03 133.87 29.46 128.26 31.71 123.19 C34.4 125.1 37.28 126.9 40.33 128.51
								 C40.33 129.28 40.34 130.18 40.24 131.24 C39.84 135.3 37.78 141.7 33.67 150.81 C32.76 149.76 31.86
								 148.67 30.96 147.57 C29 145.14 27.06 142.63 25.2 140 ZM38.61 155.83 C40.06 146.48 42.48 137.91 44.24
								 130.44 C46.96 131.69 49.81 132.79 52.76 133.71 C51.59 143.82 48.82 152.95 47.1 160.63 C43.91 159.71
								 41.15 158 38.61 155.83 ZM66.12 157.66 C60.1 160.6 55.14 161.62 50.89 161.3 C50.91 160.57 50.88 159.66
								 51 158.52 C51.45 154.29 54 146.81 59.3 135.4 C61.91 135.94 64.6 136.33 67.35 136.56 C66.22 141.81
								 63.19 149.7 57.8 160.67 C60.34 160.08 63.11 159.1 66.12 157.66 ZM66.31 157.57 C67.52 150.06 69.34
								 143.07 70.89 136.76 C72.22 136.8 73.56 136.8 74.91 136.75 C74.75 142.65 74.24 148.17 73.96 153.1
								 C71.24 154.92 68.69 156.39 66.31 157.57 ZM77.44 150.69 C77.3 149.55 77.12 148.36 77.03 147.13 C76.8
								 143.8 77.25 140.24 78.53 136.54 C79.47 136.46 80.41 136.36 81.36 136.24 C81.4 136.71 81.44 137.22
								 81.46 137.79 C81.52 140.4 81.02 144.06 79.88 148.86 C79.05 149.5 78.23 150.11 77.44 150.69 ZM84.28
								 145.35 C84.69 141.92 85.11 138.66 85.43 135.6 C86.55 135.38 87.68 135.14 88.82 134.87 C88.66 137.3
								 88.48 139.64 88.36 141.85 C86.96 143.08 85.6 144.25 84.28 145.35 ZM91.34 134.22 C93.98 133.49 96.65
								 132.59 99.35 131.51 C96.67 134.17 94.12 136.62 91.67 138.87 C91.56 138.05 91.46 137.22 91.4 136.36
								 C91.35 135.66 91.33 134.94 91.34 134.22 ZM12.84 114.61 C11.58 109.98 10.71 104.97 10.36 99.47 C11.71
								 102.16 13.5 105.01 15.7 107.88 C14.76 110.21 13.79 112.45 12.84 114.61 ZM88.97 3.39 C77.68 0.27
								 63.25 0.76 50.1 7.02 C41.03 11.34 32.58 18.4 25.47 26.27 C5.09 48.82 -4.2 77.97 1.8 120.51 C5.04
								 143.53 12.75 170.49 25.41 181.36 C54.36 178.08 85.29 165.98 107.77 142.83 C144.47 105.06 158.69
								 37.88 88.97 3.39 Z" class="st7"/>
				</g>
			</g>
		</g>
	</g>
</svg>
