<?xml version="1.0" encoding="UTF-8" standalone="no"?>
<!DOCTYPE svg PUBLIC "-//W3C//DTD SVG 1.0//EN" "http://www.w3.org/TR/2001/REC-SVG-20010904/DTD/svg10.dtd">
<!-- Создано Microsoft Visio 11.0, Экспорт SVG, версия 1.0 tomes.svg Страница-1 -->
<svg xmlns="http://www.w3.org/2000/svg" xmlns:xlink="http://www.w3.org/1999/xlink" xmlns:ev="http://www.w3.org/2001/xml-events"
		xmlns:v="http://schemas.microsoft.com/visio/2003/SVGExtensions/" width="1.65814in" height="2.01574in"
		viewBox="0 0 119.386 145.134" xml:space="preserve" color-interpolation-filters="sRGB" class="st14">
	<v:documentProperties v:langID="1049" v:metric="true" v:viewMarkup="false"/>

	<style type="text/css">
	<![CDATA[
		.st1 {fill:url(#grad30-4);stroke:#f5deb3;stroke-linecap:round;stroke-linejoin:round;stroke-width:3}
		.st2 {fill:#000000;stroke:none;stroke-linecap:round;stroke-linejoin:round;stroke-width:0.25}
		.st3 {fill:url(#grad40-10);stroke:#000000;stroke-linecap:round;stroke-linejoin:round;stroke-width:0.25}
		.st4 {fill:url(#grad40-17);stroke:#000000;stroke-linecap:round;stroke-linejoin:round;stroke-width:0.25}
		.st5 {fill:url(#grad30-21);stroke:#000000;stroke-linecap:round;stroke-linejoin:round;stroke-width:0.5}
		.st6 {fill:#3064af;stroke:#000000;stroke-linecap:round;stroke-linejoin:round;stroke-width:0.25}
		.st7 {fill:url(#grad30-21);stroke:#000000;stroke-linecap:round;stroke-linejoin:round;stroke-width:0.75}
		.st8 {visibility:visible}
		.st9 {fill:#cdcdcd;fill-opacity:0.5;stroke:#cdcdcd;stroke-linecap:round;stroke-linejoin:round;stroke-opacity:0.5;stroke-width:0.25}
		.st10 {fill:url(#grad30-4);stroke:#000000;stroke-linecap:round;stroke-linejoin:round;stroke-width:0.25}
		.st11 {fill:url(#grad28-53);stroke:#000000;stroke-linecap:round;stroke-linejoin:round;stroke-width:0.25}
		.st12 {stroke:#000000;stroke-linecap:round;stroke-linejoin:round;stroke-width:1.5}
		.st13 {fill:url(#grad28-90);stroke:#000000;stroke-linecap:round;stroke-linejoin:round;stroke-width:0.25}
		.st14 {fill:none;fill-rule:evenodd;font-size:12;overflow:visible;stroke-linecap:square;stroke-miterlimit:3}
	]]>
	</style>

	<defs id="Patterns_And_Gradients">
		<linearGradient id="grad30-4" v:fillPattern="30" v:foreground="#000000" v:background="#000000" x1="0" y1="1" x2="0" y2="0">
			<stop offset="0" style="stop-color:#000000;stop-opacity:1"/>
			<stop offset="1" style="stop-color:#000000;stop-opacity:1"/>
		</linearGradient>
		<radialGradient id="grad40-10" v:fillPattern="40" v:foreground="#4d566f" v:background="#5a9fba" cx="0.5" cy="0.5" r="0.5">
			<stop offset="0" style="stop-color:#4d566f;stop-opacity:1"/>
			<stop offset="1" style="stop-color:#5a9fba;stop-opacity:1"/>
		</radialGradient>
		<radialGradient id="grad40-17" v:fillPattern="40" v:foreground="#5a9fba" v:foregroundOpacity="0.7" v:background="#4d566f"
				v:backgroundOpacity="0.7" cx="0.5" cy="0.5" r="0.5">
			<stop offset="0" style="stop-color:#5a9fba;stop-opacity:0.7"/>
			<stop offset="1" style="stop-color:#4d566f;stop-opacity:0.7"/>
		</radialGradient>
		<linearGradient id="grad30-21" v:fillPattern="30" v:foreground="#f4ead9" v:background="#fbf7f0" x1="0" y1="1" x2="0" y2="0">
			<stop offset="0" style="stop-color:#f4ead9;stop-opacity:1"/>
			<stop offset="1" style="stop-color:#fbf7f0;stop-opacity:1"/>
		</linearGradient>
		<linearGradient id="grad28-53" v:fillPattern="28" v:foreground="#779fdb" v:background="#3064af" x1="0" y1="0" x2="0" y2="1">
			<stop offset="0" style="stop-color:#779fdb;stop-opacity:1"/>
			<stop offset="1" style="stop-color:#3064af;stop-opacity:1"/>
		</linearGradient>
		<linearGradient id="grad30-57" v:fillPattern="30" v:foreground="#f0f0f0" v:background="#ffffff" x1="0" y1="1" x2="0" y2="0">
			<stop offset="0" style="stop-color:#f0f0f0;stop-opacity:1"/>
			<stop offset="1" style="stop-color:#ffffff;stop-opacity:1"/>
		</linearGradient>
		<linearGradient id="grad28-90" v:fillPattern="28" v:foreground="#a0bce7" v:foregroundOpacity="0.5" v:background="#3064af"
				v:backgroundOpacity="0.5" x1="0" y1="0" x2="0" y2="1">
			<stop offset="0" style="stop-color:#a0bce7;stop-opacity:0.5"/>
			<stop offset="1" style="stop-color:#3064af;stop-opacity:0.5"/>
		</linearGradient>
	</defs>
	<g v:mID="0" v:index="1" v:groupContext="foregroundPage">
		<title>Страница-1</title>
		<v:pageProperties v:drawingScale="0.0393701" v:pageScale="0.0393701" v:drawingUnits="24" v:shadowOffsetX="8.50394"
				v:shadowOffsetY="-8.50394"/>
		<g id="shape1-1" v:mID="1" v:groupContext="shape" transform="translate(3,-3)">
			<title>Лист.1</title>
			<v:userDefs>
				<v:ud v:nameU="msvThemeColors" v:val="VT0(36):26"/>
				<v:ud v:nameU="msvThemeEffects" v:val="VT0(16):26"/>
			</v:userDefs>
			<path d="M0 141.12 C17.01 147.5 42.52 147.5 56.69 134.74 C70.87 147.5 96.38 147.5 113.39 141.12 C81.67 146.1 59.69 115.81
						 56.72 93.5 A28.3465 28.7992 -180 0 0 56.92 93.76 A28.3465 28.7992 -180 0 0 106.53 84.42 L106.56 84.31 C113.32
						 61.09 104.68 47.6 85.04 48.52 A44.8158 37.4846 -172.73 0 0 90.71 27.46 A35.3811 29.6027 -180 0 0 22.68 27.46
						 A49.2323 41.0365 -20.89 0 0 31.18 50.22 C9.64 47.62 0.07 61.09 6.82 84.31 L6.85 84.42 A28.3465 28.7992 -180
						 0 0 56.46 93.76 A28.3465 28.7992 -180 0 0 56.66 93.5 C53.7 115.81 31.71 146.1 0 141.12 ZM56.65 57.7 L56.73
						 57.7 C56.74 58.08 56.74 58.46 56.74 58.84 a0.0460078 0.0467427 0 0 1 -0.0896272 2.29505E-012 L56.65 57.7
						 Z" class="st1"/>
		</g>
		<g id="shape3-5" v:mID="3" v:groupContext="shape" transform="translate(3,-3)">
			<title>Лист.3</title>
			<path d="M0 141.12 C17.01 147.5 42.52 147.5 56.69 134.74 C70.87 147.5 96.38 147.5 113.39 141.12 C81.67 146.1 59.69 115.81
						 56.72 93.5 A28.3465 28.7992 -180 0 0 56.92 93.76 A28.3465 28.7992 -180 0 0 106.53 84.42 L106.56 84.31 C113.32
						 61.09 104.68 47.6 85.04 48.52 A44.8158 37.4846 -172.73 0 0 90.71 27.46 A35.3811 29.6027 -180 0 0 22.68 27.46
						 A49.2323 41.0365 -20.89 0 0 31.18 50.22 C9.64 47.62 0.07 61.09 6.82 84.31 L6.85 84.42 A28.3465 28.7992 -180
						 0 0 56.46 93.76 A28.3465 28.7992 -180 0 0 56.66 93.5 C53.7 115.81 31.71 146.1 0 141.12 ZM56.65 57.7 L56.73
						 57.7 C56.74 58.08 56.74 58.46 56.74 58.84 a0.0460078 0.0467427 0 0 1 -0.0896272 2.29505E-012 L56.65 57.7
						 Z" class="st2"/>
		</g>
		<g id="shape4-7" v:mID="4" v:groupContext="shape" transform="translate(15.2337,-59.5367) rotate(-10)">
			<title>Лист.4</title>
			<path d="M28.58 113.01 L33.42 121.39 L28.58 129.77 L18.9 129.77 L14.07 121.39 L18.9 113.01 L28.58 113.01 ZM0.91 114.87
						 L2.19 117.27 L0.09 119.37 A23.7402 23.7402 -180 0 0 0 121.39 A23.7402 23.7402 -180 0 0 0.09 123.41 L2.19
						 125.52 L0.91 127.92 A23.7402 23.7402 -180 0 0 2.99 132.92 L5.59 133.71 L5.59 136.69 A23.7402 23.7402 -180
						 0 0 8.44 139.55 L11.42 139.55 L12.21 142.15 A23.7402 23.7402 -180 0 0 17.22 144.22 L19.61 142.94 L21.72
						 145.05 A23.7402 23.7402 -180 0 0 25.76 145.05 L27.87 142.94 L30.26 144.22 A23.7402 23.7402 -180 0 0 35.27
						 142.15 L36.06 139.55 L39.04 139.55 A23.7402 23.7402 -180 0 0 41.89 136.69 L41.89 133.71 L44.49 132.92 A23.7402
						 23.7402 -180 0 0 46.57 127.92 L45.29 125.52 L47.39 123.41 A23.7402 23.7402 -180 0 0 47.48 121.39 A23.7402
						 23.7402 -180 0 0 47.39 119.37 L45.29 117.27 L46.57 114.87 A23.7402 23.7402 -180 0 0 44.49 109.86 L41.89
						 109.07 L41.89 106.1 A23.7402 23.7402 -180 0 0 39.04 103.24 L36.06 103.24 L35.27 100.64 A23.7402 23.7402
						 -180 0 0 30.26 98.57 L27.87 99.84 L25.76 97.74 A23.7402 23.7402 -180 0 0 21.72 97.74 L19.61 99.84 L17.22
						 98.57 A23.7402 23.7402 -180 0 0 12.21 100.64 L11.42 103.24 L8.44 103.24 A23.7402 23.7402 -180 0 0 5.59 106.1
						 L5.59 109.07 L2.99 109.86 A23.7402 23.7402 -180 0 0 0.91 114.87 Z" class="st3"/>
		</g>
		<g id="shape5-11" v:mID="5" v:groupContext="shape" transform="translate(23.1631,-70.8611) rotate(-10)">
			<title>Лист.5</title>
			<path d="M18.8 122.79 L23.64 131.17 L18.8 139.55 L9.13 139.55 L4.29 131.17 L9.13 122.79 L18.8 122.79 ZM0 131.17 A13.9648
						 13.9648 -180 1 0 27.93 131.17 A13.9648 13.9648 -180 1 0 0 131.17 Z" class="st3"/>
		</g>
		<g id="shape6-14" v:mID="6" v:groupContext="shape" transform="translate(18.632,-64.39) rotate(-10)">
			<title>Лист.6</title>
			<path d="M0 125.58 A19.5507 19.5507 -180 0 0 39.1 125.58 A19.5507 19.5507 -180 0 0 0 125.58 ZM5.59 125.58 A13.9648 13.9648
						 0 1 1 33.52 125.58 A13.9648 13.9648 0 1 1 5.59 125.58 Z" class="st4"/>
		</g>
		<g id="shape7-18" v:mID="7" v:groupContext="shape" transform="translate(-2.17936,-50.1006) rotate(-30) scale(-1,1)">
			<title>Лист.7</title>
			<v:userDefs>
				<v:ud v:nameU="msvThemeColors" v:val="VT0(36):26"/>
				<v:ud v:nameU="msvThemeEffects" v:val="VT0(16):26"/>
			</v:userDefs>
			<path d="M12.51 145.13 C26.65 141.42 29.89 140.17 51.56 138.93 C41.1 122.74 40.6 121.49 33.62 114.02 C13.7 121.49 1.25
						 123.83 0 136.44 C2.14 136.77 5.47 147.68 7.29 138.02 C7.57 136.55 7.81 134.6 12.51 145.13 Z" class="st5"/>
		</g>
		<g id="shape8-22" v:mID="8" v:groupContext="shape" transform="translate(-2.16834,-50.0815) rotate(-30) scale(-1,1)">
			<title>Лист.8</title>
			<v:userDefs>
				<v:ud v:nameU="msvThemeColors" v:val="VT0(36):26"/>
				<v:ud v:nameU="msvThemeEffects" v:val="VT0(16):26"/>
			</v:userDefs>
			<path d="M12.45 145.13 C21.79 141.24 29.26 136.26 52.8 131.93 C43.09 116.49 40.6 115.25 33.62 107.77 C13.7 115.25 1.25
						 117.58 0 130.19 C2.14 130.52 4.15 135.53 8.85 138.74 C9.57 139.23 10.35 139.67 12.45 145.13 Z" class="st5"/>
		</g>
		<g id="shape9-25" v:mID="9" v:groupContext="shape" transform="translate(131.343,-41.5845) rotate(30)">
			<title>Лист.9</title>
			<v:userDefs>
				<v:ud v:nameU="msvThemeColors" v:val="VT0(36):26"/>
				<v:ud v:nameU="msvThemeEffects" v:val="VT0(16):26"/>
			</v:userDefs>
			<path d="M0 144.39 C18.18 139.06 30.14 138.76 38.63 138.6 C38.36 138.91 38.36 139.41 38.6 139.9 C30.77 140.08 14.07 141.27
						 0 145.13 L0 144.39 L0 144.39 Z" class="st6"/>
		</g>
		<g id="shape10-27" v:mID="10" v:groupContext="shape" transform="translate(121.565,-49.5558) rotate(30)">
			<title>Лист.10</title>
			<v:userDefs>
				<v:ud v:nameU="msvThemeColors" v:val="VT0(36):26"/>
				<v:ud v:nameU="msvThemeEffects" v:val="VT0(16):26"/>
			</v:userDefs>
			<path d="M12.51 145.13 C26.65 141.42 29.89 140.17 51.56 138.93 C41.1 122.74 40.6 121.49 33.62 114.02 C13.7 121.49 1.25
						 123.83 0 136.44 C2.14 136.77 5.47 147.68 7.29 138.02 C7.57 136.55 7.81 134.6 12.51 145.13 Z" class="st5"/>
		</g>
		<g id="shape11-30" v:mID="11" v:groupContext="shape" transform="translate(121.554,-49.5367) rotate(30)">
			<title>Лист.11</title>
			<v:userDefs>
				<v:ud v:nameU="msvThemeColors" v:val="VT0(36):26"/>
				<v:ud v:nameU="msvThemeEffects" v:val="VT0(16):26"/>
			</v:userDefs>
			<path d="M12.45 145.13 C21.79 141.24 29.26 136.26 52.8 131.93 C43.09 116.49 40.6 115.25 33.62 107.77 C13.7 115.25 1.25
						 117.58 0 130.19 C2.14 130.52 4.15 135.53 8.85 138.74 C9.57 139.23 10.35 139.67 12.45 145.13 Z" class="st5"/>
		</g>
		<g id="shape12-33" v:mID="12" v:groupContext="shape" transform="translate(119.293,-51.5487) rotate(30)">
			<title>Лист.12</title>
			<v:userDefs>
				<v:ud v:nameU="msvThemeColors" v:val="VT0(36):26"/>
				<v:ud v:nameU="msvThemeEffects" v:val="VT0(16):26"/>
			</v:userDefs>
			<path d="M15.4 145.13 C24.74 136.42 32.21 131.44 46.53 127.57 C38.56 117.11 30.58 110.58 19.76 103.42 C16.64 104.66 4.19
						 112.76 0 118.58 C5.09 125.7 6.91 127.54 12.02 137.66 C12.79 139.2 13.65 140.93 15.4 145.13 Z" class="st7"/>
		</g>
		<g id="shape13-36" v:mID="13" v:groupContext="shape" transform="translate(132.436,-43.6949) rotate(30)">
			<title>Лист.13</title>
			<v:userDefs>
				<v:ud v:nameU="msvThemeColors" v:val="VT0(36):26"/>
				<v:ud v:nameU="msvThemeEffects" v:val="VT0(16):26"/>
			</v:userDefs>
			<g id="shadow13-37" v:groupContext="shadow" v:shadowOffsetX="1.44" v:shadowOffsetY="-1.44" v:shadowType="1"
					transform="matrix(1,-3.95734E-018,-1.13841E-017,1,1.96708,0.527077)" class="st8">
				<path d="M26.33 128.79 C14.8 133.06 8.33 137.05 0 145.13 C12.81 138.29 14.43 136.18 30 132.44 C28.5 130.32 27.75
							 129.95 26.33 128.79 Z" class="st9"/>
			</g>
			<path d="M26.33 128.79 C14.8 133.06 8.33 137.05 0 145.13 C12.81 138.29 14.43 136.18 30 132.44 C28.5 130.32 27.75 129.95
						 26.33 128.79 Z" class="st10"/>
		</g>
		<g id="shape14-41" v:mID="14" v:groupContext="shape" transform="translate(133.205,-43.0819) rotate(30)">
			<title>Лист.14</title>
			<v:userDefs>
				<v:ud v:nameU="msvThemeColors" v:val="VT0(36):26"/>
				<v:ud v:nameU="msvThemeEffects" v:val="VT0(16):26"/>
			</v:userDefs>
			<path d="M30.87 133.93 C20.31 136.4 13.58 138.4 0 145.13 C16.32 139.77 18.44 139.39 33.38 137.9 C32.39 135.66 31.51 134.78
						 30.87 133.93 Z" class="st10"/>
		</g>
		<g id="shape15-44" v:mID="15" v:groupContext="shape" transform="translate(119.27,-52.3115) rotate(30)">
			<title>Лист.15</title>
			<v:userDefs>
				<v:ud v:nameU="msvThemeColors" v:val="VT0(36):26"/>
				<v:ud v:nameU="msvThemeEffects" v:val="VT0(16):26"/>
			</v:userDefs>
			<path d="M15.57 145.13 C9.6 132.02 7.05 127.09 0 119.53 C3.37 125.22 10.34 136.43 15.57 145.13 Z" class="st10"/>
		</g>
		<g id="shape16-47" v:mID="16" v:groupContext="shape" transform="translate(131.716,-42.2316) rotate(30)">
			<title>Лист.16</title>
			<v:userDefs>
				<v:ud v:nameU="msvThemeColors" v:val="VT0(36):26"/>
				<v:ud v:nameU="msvThemeEffects" v:val="VT0(16):26"/>
			</v:userDefs>
			<path d="M0 143.89 C18.18 138.56 30.14 138.26 39.1 137.66 C38.94 138.57 39.23 138.04 38.6 139.41 C30.77 139.58 14.07
						 140.77 0 145.13 L0 143.89 L0 143.89 Z" class="st10"/>
		</g>
		<g id="shape17-50" v:mID="17" v:groupContext="shape" transform="translate(142.274,-24.4048) rotate(30)">
			<title>Лист.17</title>
			<v:userDefs>
				<v:ud v:nameU="msvThemeColors" v:val="VT0(36):26"/>
				<v:ud v:nameU="msvThemeEffects" v:val="VT0(16):26"/>
			</v:userDefs>
			<path d="M0 130.85 C2.23 130.72 1.42 137.95 1.88 141.68 C2.09 143.41 2.57 144.39 3.96 145.13 C3.62 143.57 4.31 142.53
						 5.18 141.83 C4.95 141.47 6.05 143.92 7.96 143.57 C5.7 139.75 9.7 131.41 5.6 130.3 C3.11 130.24 2.24 130.37
						 0 130.85 Z" class="st11"/>
		</g>
		<g id="shape18-54" v:mID="18" v:groupContext="shape" transform="translate(42.3678,-88.729) rotate(-8.65981)">
			<title>Лист.18</title>
			<v:userDefs>
				<v:ud v:nameU="msvThemeColors" v:val="VT0(36):26"/>
				<v:ud v:nameU="msvThemeEffects" v:val="VT0(16):26"/>
			</v:userDefs>
			<path d="M0 145.13 C3.5 144.74 4.08 144.41 7.97 145.13" class="st12"/>
		</g>
		<g id="shape19-59" v:mID="19" v:groupContext="shape" transform="translate(62.8114,-88.3792) rotate(-3.69007)">
			<title>Лист.19</title>
			<v:userDefs>
				<v:ud v:nameU="msvThemeColors" v:val="VT0(36):26"/>
				<v:ud v:nameU="msvThemeEffects" v:val="VT0(16):26"/>
			</v:userDefs>
			<path d="M0 145.13 C1.97 144.94 2.3 144.78 4.49 145.13" class="st12"/>
		</g>
		<g id="shape20-63" v:mID="20" v:groupContext="shape" transform="translate(40.7658,-81.3608) rotate(-10.0303)">
			<title>Лист.20</title>
			<v:userDefs>
				<v:ud v:nameU="msvThemeColors" v:val="VT0(36):26"/>
				<v:ud v:nameU="msvThemeEffects" v:val="VT0(16):26"/>
			</v:userDefs>
			<path d="M0 145.13 C1.79 144.94 2.08 144.78 4.07 145.13" class="st12"/>
		</g>
		<g id="shape21-67" v:mID="21" v:groupContext="shape" transform="translate(65.1577,-83.9938) rotate(-3.34071)">
			<title>Лист.21</title>
			<v:userDefs>
				<v:ud v:nameU="msvThemeColors" v:val="VT0(36):26"/>
				<v:ud v:nameU="msvThemeEffects" v:val="VT0(16):26"/>
			</v:userDefs>
			<path d="M0 145.13 C2.49 144.94 2.9 144.78 5.66 145.13" class="st12"/>
		</g>
		<g id="shape22-71" v:mID="22" v:groupContext="shape" transform="translate(92.9617,-84.1549) rotate(4.44003)">
			<title>Лист.22</title>
			<v:userDefs>
				<v:ud v:nameU="msvThemeColors" v:val="VT0(36):26"/>
				<v:ud v:nameU="msvThemeEffects" v:val="VT0(16):26"/>
			</v:userDefs>
			<path d="M0 145.13 C1.62 144.94 1.9 144.78 3.7 145.13" class="st12"/>
		</g>
		<g id="shape23-75" v:mID="23" v:groupContext="shape" transform="translate(49.7593,-74.4383) rotate(-6.8699)">
			<title>Лист.23</title>
			<v:userDefs>
				<v:ud v:nameU="msvThemeColors" v:val="VT0(36):26"/>
				<v:ud v:nameU="msvThemeEffects" v:val="VT0(16):26"/>
			</v:userDefs>
			<path d="M0 145.13 C1.37 144.94 1.59 144.78 3.11 145.13" class="st12"/>
		</g>
		<g id="shape24-79" v:mID="24" v:groupContext="shape" transform="translate(75.4675,-75.9047) rotate(0.642246)">
			<title>Лист.24</title>
			<v:userDefs>
				<v:ud v:nameU="msvThemeColors" v:val="VT0(36):26"/>
				<v:ud v:nameU="msvThemeEffects" v:val="VT0(16):26"/>
			</v:userDefs>
			<path d="M0 145.13 C3.01 144.94 3.51 144.78 6.86 145.13" class="st12"/>
		</g>
		<g id="shape25-83" v:mID="25" v:groupContext="shape" transform="translate(49.7459,-71.4263) rotate(-6.8699)">
			<title>Лист.25</title>
			<v:userDefs>
				<v:ud v:nameU="msvThemeColors" v:val="VT0(36):26"/>
				<v:ud v:nameU="msvThemeEffects" v:val="VT0(16):26"/>
			</v:userDefs>
			<path d="M0 145.13 C2.31 144.94 2.69 144.78 5.26 145.13" class="st12"/>
		</g>
		<g id="shape26-87" v:mID="26" v:groupContext="shape" transform="translate(142.273,-24.402) rotate(30)">
			<title>Лист.26</title>
			<v:userDefs>
				<v:ud v:nameU="msvThemeColors" v:val="VT0(36):26"/>
				<v:ud v:nameU="msvThemeEffects" v:val="VT0(16):26"/>
			</v:userDefs>
			<path d="M0 130.85 C2.23 130.72 1.42 137.95 1.88 141.68 C2.09 143.41 2.57 144.39 3.96 145.13 C3.62 143.57 4.31 142.53
						 5.18 141.83 C4.95 141.47 6.05 143.92 7.96 143.57 C5.7 139.75 9.7 131.41 5.6 130.3 C3.11 130.24 2.24 130.37
						 0 130.85 Z" class="st13"/>
		</g>
		<g id="shape27-91" v:mID="27" v:groupContext="shape" transform="translate(-11.9569,-42.1294) rotate(-30) scale(-1,1)">
			<title>Лист.27</title>
			<v:userDefs>
				<v:ud v:nameU="msvThemeColors" v:val="VT0(36):26"/>
				<v:ud v:nameU="msvThemeEffects" v:val="VT0(16):26"/>
			</v:userDefs>
			<path d="M0 144.39 C18.18 139.06 30.14 138.76 38.63 138.6 C38.36 138.91 38.36 139.41 38.6 139.9 C30.77 140.08 14.07 141.27
						 0 145.13 L0 144.39 L0 144.39 Z" class="st6"/>
		</g>
		<g id="shape28-93" v:mID="28" v:groupContext="shape" transform="translate(0.0712517,-52.0935) rotate(-30) scale(-1,1)">
			<title>Лист.28</title>
			<v:userDefs>
				<v:ud v:nameU="msvThemeColors" v:val="VT0(36):26"/>
				<v:ud v:nameU="msvThemeEffects" v:val="VT0(16):26"/>
			</v:userDefs>
			<path d="M15.4 145.13 C24.74 136.42 32.21 131.44 46.53 127.57 C38.56 117.11 30.58 110.58 19.76 103.42 C16.64 104.66 4.19
						 112.76 0 118.58 C5.09 125.7 6.91 127.54 12.02 137.66 C12.79 139.2 13.65 140.93 15.4 145.13 Z" class="st7"/>
		</g>
		<g id="shape29-96" v:mID="29" v:groupContext="shape" transform="translate(-13.0505,-44.2397) rotate(-30) scale(-1,1)">
			<title>Лист.29</title>
			<v:userDefs>
				<v:ud v:nameU="msvThemeColors" v:val="VT0(36):26"/>
				<v:ud v:nameU="msvThemeEffects" v:val="VT0(16):26"/>
			</v:userDefs>
			<g id="shadow29-97" v:groupContext="shadow" v:shadowOffsetX="1.44" v:shadowOffsetY="-1.44" v:shadowType="1"
					transform="matrix(1,-2.28496E-017,-2.28496E-017,1,-0.527077,1.96708)" class="st8">
				<path d="M26.33 128.79 C14.8 133.06 8.33 137.05 0 145.13 C12.81 138.29 14.43 136.18 30 132.44 C28.5 130.32 27.75
							 129.95 26.33 128.79 Z" class="st9"/>
			</g>
			<path d="M26.33 128.79 C14.8 133.06 8.33 137.05 0 145.13 C12.81 138.29 14.43 136.18 30 132.44 C28.5 130.32 27.75 129.95
						 26.33 128.79 Z" class="st10"/>
		</g>
		<g id="shape30-101" v:mID="30" v:groupContext="shape" transform="translate(-13.8194,-43.6267) rotate(-30) scale(-1,1)">
			<title>Лист.30</title>
			<v:userDefs>
				<v:ud v:nameU="msvThemeColors" v:val="VT0(36):26"/>
				<v:ud v:nameU="msvThemeEffects" v:val="VT0(16):26"/>
			</v:userDefs>
			<path d="M30.87 133.93 C20.31 136.4 13.58 138.4 0 145.13 C16.32 139.77 18.44 139.39 33.38 137.9 C32.39 135.66 31.51 134.78
						 30.87 133.93 Z" class="st10"/>
		</g>
		<g id="shape31-104" v:mID="31" v:groupContext="shape" transform="translate(0.240365,-51.5562) rotate(-30) scale(-1,1)">
			<title>Лист.31</title>
			<v:userDefs>
				<v:ud v:nameU="msvThemeColors" v:val="VT0(36):26"/>
				<v:ud v:nameU="msvThemeEffects" v:val="VT0(16):26"/>
			</v:userDefs>
			<path d="M14.91 145.13 C10.57 131.2 6.4 127.24 0 118.51 C2.85 124.65 8.9 136.46 14.91 145.13 Z" class="st10"/>
		</g>
		<g id="shape32-107" v:mID="32" v:groupContext="shape" transform="translate(-12.3304,-42.7764) rotate(-30) scale(-1,1)">
			<title>Лист.32</title>
			<v:userDefs>
				<v:ud v:nameU="msvThemeColors" v:val="VT0(36):26"/>
				<v:ud v:nameU="msvThemeEffects" v:val="VT0(16):26"/>
			</v:userDefs>
			<path d="M0 143.89 C18.18 138.56 30.14 138.26 39.1 137.66 C38.94 138.57 39.23 138.04 38.6 139.41 C30.77 139.58 14.07
						 140.77 0 145.13 L0 143.89 L0 143.89 Z" class="st10"/>
		</g>
		<g id="shape33-110" v:mID="33" v:groupContext="shape" transform="translate(45.3469,-89.9761) scale(-1,1)">
			<title>Лист.33</title>
			<v:userDefs>
				<v:ud v:nameU="msvThemeColors" v:val="VT0(36):26"/>
				<v:ud v:nameU="msvThemeEffects" v:val="VT0(16):26"/>
			</v:userDefs>
			<path d="M0 145.13 C3.98 144.74 4.65 144.41 9.07 145.13" class="st12"/>
		</g>
		<g id="shape34-114" v:mID="34" v:groupContext="shape" transform="translate(61.2073,-84.2893) rotate(3.69007) scale(-1,1)">
			<title>Лист.34</title>
			<v:userDefs>
				<v:ud v:nameU="msvThemeColors" v:val="VT0(36):26"/>
				<v:ud v:nameU="msvThemeEffects" v:val="VT0(16):26"/>
			</v:userDefs>
			<path d="M0 145.13 C1.97 144.94 2.3 144.78 4.49 145.13" class="st12"/>
		</g>
		<g id="shape35-118" v:mID="35" v:groupContext="shape" transform="translate(79.6455,-75.612) rotate(10.0303) scale(-1,1)">
			<title>Лист.35</title>
			<v:userDefs>
				<v:ud v:nameU="msvThemeColors" v:val="VT0(36):26"/>
				<v:ud v:nameU="msvThemeEffects" v:val="VT0(16):26"/>
			</v:userDefs>
			<path d="M0 145.13 C1.79 144.94 2.08 144.78 4.07 145.13" class="st12"/>
		</g>
		<g id="shape36-122" v:mID="36" v:groupContext="shape" transform="translate(46.7642,-78.0706) scale(-1,1)">
			<title>Лист.36</title>
			<v:userDefs>
				<v:ud v:nameU="msvThemeColors" v:val="VT0(36):26"/>
				<v:ud v:nameU="msvThemeEffects" v:val="VT0(16):26"/>
			</v:userDefs>
			<path d="M0 145.13 C2.74 144.94 3.19 144.78 6.24 145.13" class="st12"/>
		</g>
		<g id="shape37-126" v:mID="37" v:groupContext="shape" transform="translate(23.6231,-76.7846) rotate(-4.44003) scale(-1,1)">
			<title>Лист.37</title>
			<v:userDefs>
				<v:ud v:nameU="msvThemeColors" v:val="VT0(36):26"/>
				<v:ud v:nameU="msvThemeEffects" v:val="VT0(16):26"/>
			</v:userDefs>
			<path d="M0 145.13 C1.91 144.94 2.23 144.78 4.35 145.13" class="st12"/>
		</g>
		<g id="shape38-130" v:mID="38" v:groupContext="shape" transform="translate(64.9748,-71.9262) rotate(6.8699) scale(-1,1)">
			<title>Лист.38</title>
			<v:userDefs>
				<v:ud v:nameU="msvThemeColors" v:val="VT0(36):26"/>
				<v:ud v:nameU="msvThemeEffects" v:val="VT0(16):26"/>
			</v:userDefs>
			<path d="M0 145.13 C1.37 144.94 1.59 144.78 3.11 145.13" class="st12"/>
		</g>
		<g id="shape39-134" v:mID="39" v:groupContext="shape" transform="translate(15.2509,-70.4266) rotate(-9.46232) scale(-1,1)">
			<title>Лист.39</title>
			<v:userDefs>
				<v:ud v:nameU="msvThemeColors" v:val="VT0(36):26"/>
				<v:ud v:nameU="msvThemeEffects" v:val="VT0(16):26"/>
			</v:userDefs>
			<path d="M0 145.13 C3.78 144.94 4.42 144.78 8.62 145.13" class="st12"/>
		</g>
		<g id="shape40-138" v:mID="40" v:groupContext="shape" transform="translate(72.4337,-68.0715) rotate(6.8699) scale(-1,1)">
			<title>Лист.40</title>
			<v:userDefs>
				<v:ud v:nameU="msvThemeColors" v:val="VT0(36):26"/>
				<v:ud v:nameU="msvThemeEffects" v:val="VT0(16):26"/>
			</v:userDefs>
			<path d="M0 145.13 C3.28 144.94 3.83 144.78 7.47 145.13" class="st12"/>
		</g>
		<g id="shape41-142" v:mID="41" v:groupContext="shape" transform="translate(67.2653,-57.0605) rotate(5)">
			<title>Лист.41</title>
			<v:userDefs>
				<v:ud v:nameU="msvThemeColors" v:val="VT0(36):26"/>
				<v:ud v:nameU="msvThemeEffects" v:val="VT0(16):26"/>
			</v:userDefs>
			<path d="M8.82 141.25 C10.3 142.26 10.57 142.99 10.28 143.52 C9.7 144.6 6.84 144.88 4.42 145.05 C2.64 145.16 1.1 145.22
						 0.43 144.85 C-0.41 144.38 0.09 143.26 0.97 141.95 C2.83 140.52 7.24 140.8 8.82 141.25 Z" class="st6"/>
		</g>
		<g id="shape42-144" v:mID="42" v:groupContext="shape" transform="translate(70.5088,-57.2015) rotate(6)">
			<title>Лист.42</title>
			<v:userDefs>
				<v:ud v:nameU="msvThemeColors" v:val="VT0(36):26"/>
				<v:ud v:nameU="msvThemeEffects" v:val="VT0(16):26"/>
			</v:userDefs>
			<path d="M4.19 139.89 C8.69 142.16 8.89 143.04 8.65 143.64 C8.17 144.85 5.9 144.86 3.72 145.01 C2.11 145.12 0.55 145.32
						 0.12 144.8 C-0.41 144.15 0.82 142.4 3.1 139.77 C3.54 139.9 3.46 139.87 4.19 139.89 Z" class="st10"/>
		</g>
	</g>
</svg>
