<?xml version="1.0" encoding="UTF-8" standalone="no"?>
<!DOCTYPE svg PUBLIC "-//W3C//DTD SVG 1.0//EN" "http://www.w3.org/TR/2001/REC-SVG-20010904/DTD/svg10.dtd">
<!-- Создано Microsoft Visio 11.0, Экспорт SVG, версия 1.0 back.svg Страница-1 -->
<svg xmlns="http://www.w3.org/2000/svg" xmlns:xlink="http://www.w3.org/1999/xlink" xmlns:ev="http://www.w3.org/2001/xml-events"
		xmlns:v="http://schemas.microsoft.com/visio/2003/SVGExtensions/" width="2.72343in" height="3.70768in"
		viewBox="0 0 196.087 266.953" xml:space="preserve" color-interpolation-filters="sRGB" class="st4">
	<v:documentProperties v:langID="1049" v:metric="true" v:viewMarkup="false"/>

	<style type="text/css">
	<![CDATA[
		.st1 {fill:none;stroke:#38557a;stroke-linecap:round;stroke-linejoin:round;stroke-width:4.5}
		.st2 {fill:#002060;stroke:none;stroke-linecap:round;stroke-linejoin:round;stroke-width:0.25}
		.st3 {fill:#38557a;stroke:none;stroke-linecap:round;stroke-linejoin:round;stroke-width:0.25}
		.st4 {fill:none;fill-rule:evenodd;font-size:12;overflow:visible;stroke-linecap:square;stroke-miterlimit:3}
	]]>
	</style>

	<g v:mID="0" v:index="1" v:groupContext="foregroundPage">
		<title>Страница-1</title>
		<v:pageProperties v:drawingScale="0.0393701" v:pageScale="0.0393701" v:drawingUnits="24" v:shadowOffsetX="8.50394"
				v:shadowOffsetY="-8.50394"/>
		<g id="shape1-1" v:mID="1" v:groupContext="shape" transform="translate(4.5,-4.5)">
			<title>Прямоугольник</title>
			<v:userDefs>
				<v:ud v:nameU="visVersion" v:val="VT0(14):26"/>
				<v:ud v:nameU="msvThemeColors" v:val="VT0(36):26"/>
				<v:ud v:nameU="msvThemeEffects" v:val="VT0(16):26"/>
			</v:userDefs>
			<rect x="0" y="9" width="187.087" height="257.953" class="st1"/>
		</g>
		<g id="shape5-3" v:mID="5" v:groupContext="shape" transform="translate(37.1192,-139.142)">
			<title>Лист.5</title>
			<path d="M0.55 266.95 L0 266.95 A9.7246 9.7246 -180 0 0 0.55 266.95 Z" class="st2"/>
		</g>
		<g id="shape10-5" v:mID="10" v:groupContext="shape" transform="translate(75.9331,-132.059)">
			<title>Лист.10</title>
			<path d="M1.14 259.87 A22.6772 22.6772 -180 0 0 0.4 262.7 A22.6772 22.6772 -180 0 0 0 266.95 L2.83 266.95 A19.8425 19.8425
						 0 0 1 3.3 262.7 A19.8425 19.8425 0 0 1 4.14 259.87 A19.8425 19.8425 0 0 1 15.31 248.53 A19.8425 19.8425
						 0 0 1 18.71 247.51 A19.8425 19.8425 0 0 1 22.68 247.11 L22.68 244.28 A22.6772 22.6772 -180 0 0 18.71 244.63
						 A22.6772 22.6772 -180 0 0 15.31 245.51 A22.6772 22.6772 -180 0 0 1.14 259.87 Z" class="st3"/>
		</g>
		<g id="shape11-7" v:mID="11" v:groupContext="shape" transform="translate(92.5005,-134.816)">
			<title>Лист.11</title>
			<path d="M2.71 252.14 A14.9214 14.9214 -180 0 0 0 252.72 L4.47 266.95 L2.71 252.14 Z" class="st3"/>
		</g>
		<g id="shape12-9" v:mID="12" v:groupContext="shape" transform="translate(81.0354,-133.53)">
			<title>Лист.12</title>
			<path d="M0 265.67 L14.7 266.95 L0.55 262.75 A14.7514 14.7514 -180 0 0 -0 265.67 Z" class="st3"/>
		</g>
		<g id="shape13-11" v:mID="13" v:groupContext="shape" transform="translate(87.2717,-135.516)">
			<title>Лист.13</title>
			<path d="M0 264.17 L7.55 266.95 L4.24 259.62 A8.04598 8.04598 -180 0 0 0 264.17 Z" class="st3"/>
		</g>
		<g id="shape14-13" v:mID="14" v:groupContext="shape" transform="translate(26.6102,-225.319)">
			<title>Лист.14</title>
			<path d="M0 259.87 A7.08661 7.08661 -180 1 0 14.17 259.87 A7.08661 7.08661 -180 0 0 -0 259.87 Z" class="st3"/>
		</g>
		<g id="shape15-15" v:mID="15" v:groupContext="shape" transform="translate(39.0827,-238.358)">
			<title>Лист.15</title>
			<path d="M0 262.7 A4.25197 4.25197 -180 0 0 8.5 262.7 A4.25197 4.25197 -180 1 0 0 262.7 Z" class="st3"/>
		</g>
		<g id="shape16-17" v:mID="16" v:groupContext="shape" transform="translate(19.8071,-218.232)">
			<title>Лист.16</title>
			<path d="M8.5 262.7 A4.25197 4.25197 -180 1 0 0 262.7 A4.25197 4.25197 -180 0 0 8.5 262.7 Z" class="st3"/>
		</g>
		<g id="shape17-19" v:mID="17" v:groupContext="shape" transform="translate(58.2573,-150.746)">
			<title>Лист.17</title>
			<path d="M0 266.95 A13.1532 10.6865 -20 0 0 0.73 266.78 A18.0403 14.6571 -20 0 0 0 266.95 Z" class="st2"/>
		</g>
		<g id="shape18-21" v:mID="18" v:groupContext="shape" transform="translate(58.2573,-149.965)">
			<title>Лист.18</title>
			<path d="M0 266.17 A7.84049 6.3701 -20 0 0 1.67 266.95 A15.0089 12.1942 -20 0 0 0 266.17 Z" class="st2"/>
		</g>
		<g id="shape19-23" v:mID="19" v:groupContext="shape" transform="translate(78.8339,-226.25)">
			<title>Лист.19</title>
			<path d="M-0 266.95 A18.3313 18.3313 -155.02 0 0 0.59 266.86 L0.59 266.86 A7.35438 7.35438 -110.15 0 0 -0 266.95 Z"
					class="st2"/>
		</g>
		<g id="shape20-25" v:mID="20" v:groupContext="shape" transform="translate(79.4227,-226.341)">
			<title>Лист.20</title>
			<path d="M0.09 266.94 A7.35438 7.35438 -110.15 0 0 0 266.95 L0 266.95 L0.09 266.94 Z" class="st2"/>
		</g>
		<g id="shape21-27" v:mID="21" v:groupContext="shape" transform="translate(79.427,-226.232)">
			<title>Лист.21</title>
			<path d="M0.09 266.83 L0 266.84 L0.1 266.95 A7.21041 7.21041 -20 0 0 0.09 266.83 Z" class="st2"/>
		</g>
		<g id="shape22-29" v:mID="22" v:groupContext="shape" transform="translate(79.269,-226.346)">
			<title>Лист.22</title>
			<path d="M0 266.79 A40.1294 40.1294 -180 0 0 0.15 266.95 A7.35438 7.35438 69.85 0 1 0.25 266.94 A7.61059 7.61059 -65.04
						 0 0 -0 266.79 Z" class="st2"/>
		</g>
		<g id="shape24-31" v:mID="24" v:groupContext="shape" transform="translate(81.8858,-183.81)">
			<title>Лист.24</title>
			<path d="M0 264.4 A2.55118 2.55118 -180 0 0 5.1 264.4 A2.55118 2.55118 -180 0 0 0 264.4 Z" class="st3"/>
		</g>
		<g id="shape25-33" v:mID="25" v:groupContext="shape" transform="translate(46.4528,-142.709)">
			<title>Лист.25</title>
			<path d="M0 264.4 A2.55118 2.55118 -180 0 0 5.1 264.4 A2.55118 2.55118 -180 0 0 0 264.4 Z" class="st3"/>
		</g>
		<g id="shape26-35" v:mID="26" v:groupContext="shape" transform="translate(54.1063,-171.744)">
			<title>Лист.26</title>
			<path d="M0 264.4 A2.55118 2.55118 -180 1 0 5.1 264.4 A2.55118 2.55118 -180 0 0 0 264.4 Z" class="st3"/>
		</g>
		<g id="shape27-37" v:mID="27" v:groupContext="shape" transform="translate(24.9094,-136.311)">
			<title>Лист.27</title>
			<path d="M49.42 232.99 A14.8808 14.8808 -180 0 0 34.02 242.86 A19.7716 19.7716 0 0 1 61.89 242.35 A31.1811 31.1811 -180
						 0 0 43.34 264.12 L12.76 264.12 A9.7246 9.7246 0 0 1 12.21 264.12 A9.7246 9.7246 0 0 1 2.83 255.61 L2.83
						 244.84 A3.86031 3.86031 0 1 1 5.67 251.93 A2.98061 2.98061 -180 0 0 10.49 248.53 A6.84011 6.84011 0 0 1
						 9.35 259.87 A6.78152 6.78152 -180 0 0 13.32 247.96 A23.1249 23.1249 -180 0 0 33.35 252.52 A18.0403 14.6571
						 160 0 1 34.08 252.35 A13.1532 10.6865 -20 0 0 44.45 237.97 A14.5286 11.804 160 0 1 20.69 248.53 A21.3811
						 21.3811 -180 0 0 2.83 242.86 L2.83 198.54 A56.2207 56.2207 -180 0 0 36.47 164.91 L46.77 164.91 A40.1294
						 40.1294 -180 0 0 54.36 176.75 A7.61059 7.61059 114.95 0 1 54.6 176.91 A7.21041 7.21041 160 0 1 54.62 177.03
						 A40.1294 40.1294 -180 0 0 56.69 179.08 A20.7408 20.7408 0 0 1 58.96 201.76 A9.47112 9.47112 -180 0 0 51.7
						 189.97 A11.1606 11.1606 0 0 1 55.28 206.01 A16.994 16.994 -180 0 0 55.28 228.69 A17.3494 17.3494 0 0 1 59.37
						 205.12 A22.5384 22.5384 -180 0 0 56.69 173.98 A23.3514 23.3514 0 0 1 51.02 164.91 L55.71 164.91 A19.8963
						 19.8963 0 0 1 66.33 181.91 L66.33 240.91 A31.1811 31.1811 -180 0 0 65.9 241.02 L65.87 240.99 A21.3698 21.3698
						 0 0 1 61.23 223.44 A10.1631 10.1631 -180 0 0 60.84 236.55 A22.4723 22.4723 -180 0 0 49.42 232.99 ZM49.42
						 232.99 A8.24235 8.24235 -180 0 0 43.37 223.02 A8.081 8.081 -180 0 0 49.42 232.99 ZM34.08 252.35 A13.1532
						 10.6865 160 0 1 33.35 252.52 A15.0089 12.1942 160 0 1 35.02 253.3 A7.84049 6.3701 -20 0 0 42.43 252.24 A18.0403
						 14.6571 -20 0 0 34.08 252.35 ZM35.02 253.3 A7.84049 6.3701 160 0 1 33.35 252.52 A15.4812 12.5779 -20 0 0
						 40.41 260.56 A15.0089 12.1942 -20 0 0 35.02 253.3 ZM0 255.61 A15.3838 15.3838 -180 0 0 2.83 261.28 A15.3838
						 15.3838 -180 0 0 5.78 264.12 A15.3838 15.3838 -180 0 0 12.76 266.95 L45.68 266.95 A28.3465 28.3465 0 0 1
						 46.25 264.12 A28.3465 28.3465 0 0 1 66.33 243.83 A28.3465 28.3465 0 0 1 69.73 243.14 L69.73 181.91 A20.4451
						 20.4451 -180 0 0 66.33 170.71 A20.4451 20.4451 -180 0 0 60.5 164.91 A20.4451 20.4451 -180 0 0 53.86 162.07
						 L34.87 162.07 A52.2797 52.2797 0 0 1 33.9 164.91 A52.2797 52.2797 0 0 1 2.83 195.71 A52.2797 52.2797 0 0
						 1 0 196.65 L0 255.61 ZM54.36 176.75 A7.61059 7.61059 -65.05 0 0 46.77 176.58 A18.3313 18.3313 -155.05 0
						 0 53.92 177.01 A7.35438 7.35438 69.8 0 1 54.51 176.92 A40.1294 40.1294 0 0 1 54.36 176.75 ZM53.92 177.01
						 A7.35438 7.35438 -110.28 0 0 48.09 185.02 A7.21041 7.21041 -20 0 0 54.62 177.03 L54.52 176.92 A18.3313 18.3313
						 24.95 0 1 53.92 177.01 Z" class="st3"/>
		</g>
		<g id="shape29-39" v:mID="29" v:groupContext="shape" transform="translate(160.101,-139.142) scale(-1,1)">
			<title>Лист.29</title>
			<path d="M0.55 266.95 L0 266.95 A9.7246 9.7246 -180 0 0 0.55 266.95 Z" class="st2"/>
		</g>
		<g id="shape34-41" v:mID="34" v:groupContext="shape" transform="translate(121.287,-132.059) scale(-1,1)">
			<title>Лист.34</title>
			<path d="M1.14 259.87 A22.6772 22.6772 -180 0 0 0.4 262.7 A22.6772 22.6772 -180 0 0 0 266.95 L2.83 266.95 A19.8425 19.8425
						 0 0 1 3.3 262.7 A19.8425 19.8425 0 0 1 4.14 259.87 A19.8425 19.8425 0 0 1 15.31 248.53 A19.8425 19.8425
						 0 0 1 18.71 247.51 A19.8425 19.8425 0 0 1 22.68 247.11 L22.68 244.28 A22.6772 22.6772 -180 0 0 18.71 244.63
						 A22.6772 22.6772 -180 0 0 15.31 245.51 A22.6772 22.6772 -180 0 0 1.14 259.87 Z" class="st3"/>
		</g>
		<g id="shape35-43" v:mID="35" v:groupContext="shape" transform="translate(104.72,-134.816) scale(-1,1)">
			<title>Лист.35</title>
			<path d="M2.71 252.14 A14.9214 14.9214 -180 0 0 0 252.72 L4.47 266.95 L2.71 252.14 Z" class="st3"/>
		</g>
		<g id="shape36-45" v:mID="36" v:groupContext="shape" transform="translate(116.185,-133.53) scale(-1,1)">
			<title>Лист.36</title>
			<path d="M0 265.67 L14.7 266.95 L0.55 262.75 A14.7514 14.7514 -180 0 0 -0 265.67 Z" class="st3"/>
		</g>
		<g id="shape37-47" v:mID="37" v:groupContext="shape" transform="translate(109.949,-135.516) scale(-1,1)">
			<title>Лист.37</title>
			<path d="M0 264.17 L7.55 266.95 L4.24 259.62 A8.04598 8.04598 -180 0 0 0 264.17 Z" class="st3"/>
		</g>
		<g id="shape38-49" v:mID="38" v:groupContext="shape" transform="translate(170.61,-225.319) scale(-1,1)">
			<title>Лист.38</title>
			<path d="M0 259.87 A7.08661 7.08661 -180 1 0 14.17 259.87 A7.08661 7.08661 -180 0 0 -0 259.87 Z" class="st3"/>
		</g>
		<g id="shape39-51" v:mID="39" v:groupContext="shape" transform="translate(158.138,-238.358) scale(-1,1)">
			<title>Лист.39</title>
			<path d="M0 262.7 A4.25197 4.25197 -180 0 0 8.5 262.7 A4.25197 4.25197 -180 1 0 0 262.7 Z" class="st3"/>
		</g>
		<g id="shape40-53" v:mID="40" v:groupContext="shape" transform="translate(177.413,-218.232) scale(-1,1)">
			<title>Лист.40</title>
			<path d="M8.5 262.7 A4.25197 4.25197 -180 1 0 0 262.7 A4.25197 4.25197 -180 0 0 8.5 262.7 Z" class="st3"/>
		</g>
		<g id="shape41-55" v:mID="41" v:groupContext="shape" transform="translate(138.963,-150.746) scale(-1,1)">
			<title>Лист.41</title>
			<path d="M0 266.95 A13.1532 10.6865 -20 0 0 0.73 266.78 A18.0403 14.6571 -20 0 0 0 266.95 Z" class="st2"/>
		</g>
		<g id="shape42-57" v:mID="42" v:groupContext="shape" transform="translate(138.963,-149.965) scale(-1,1)">
			<title>Лист.42</title>
			<path d="M0 266.17 A7.84049 6.3701 -20 0 0 1.67 266.95 A15.0089 12.1942 -20 0 0 0 266.17 Z" class="st2"/>
		</g>
		<g id="shape43-59" v:mID="43" v:groupContext="shape" transform="translate(118.387,-226.25) scale(-1,1)">
			<title>Лист.43</title>
			<path d="M-0 266.95 A18.3313 18.3313 -155.02 0 0 0.59 266.86 L0.59 266.86 A7.35438 7.35438 -110.15 0 0 -0 266.95 Z"
					class="st2"/>
		</g>
		<g id="shape44-61" v:mID="44" v:groupContext="shape" transform="translate(117.798,-226.341) scale(-1,1)">
			<title>Лист.44</title>
			<path d="M0.09 266.94 A7.35438 7.35438 -110.15 0 0 0 266.95 L0 266.95 L0.09 266.94 Z" class="st2"/>
		</g>
		<g id="shape45-63" v:mID="45" v:groupContext="shape" transform="translate(117.793,-226.232) scale(-1,1)">
			<title>Лист.45</title>
			<path d="M0.09 266.83 L0 266.84 L0.1 266.95 A7.21041 7.21041 -20 0 0 0.09 266.83 Z" class="st2"/>
		</g>
		<g id="shape46-65" v:mID="46" v:groupContext="shape" transform="translate(117.951,-226.346) scale(-1,1)">
			<title>Лист.46</title>
			<path d="M0 266.79 A40.1294 40.1294 -180 0 0 0.15 266.95 A7.35438 7.35438 69.85 0 1 0.25 266.94 A7.61059 7.61059 -65.04
						 0 0 -0 266.79 Z" class="st2"/>
		</g>
		<g id="shape48-67" v:mID="48" v:groupContext="shape" transform="translate(115.335,-183.81) scale(-1,1)">
			<title>Лист.48</title>
			<path d="M0 264.4 A2.55118 2.55118 -180 0 0 5.1 264.4 A2.55118 2.55118 -180 0 0 0 264.4 Z" class="st3"/>
		</g>
		<g id="shape49-69" v:mID="49" v:groupContext="shape" transform="translate(150.768,-142.709) scale(-1,1)">
			<title>Лист.49</title>
			<path d="M0 264.4 A2.55118 2.55118 -180 0 0 5.1 264.4 A2.55118 2.55118 -180 0 0 0 264.4 Z" class="st3"/>
		</g>
		<g id="shape51-71" v:mID="51" v:groupContext="shape" transform="translate(143.114,-171.744) scale(-1,1)">
			<title>Лист.51</title>
			<path d="M0 264.4 A2.55118 2.55118 -180 1 0 5.1 264.4 A2.55118 2.55118 -180 0 0 0 264.4 Z" class="st3"/>
		</g>
		<g id="shape64-73" v:mID="64" v:groupContext="shape" transform="translate(172.311,-136.311) scale(-1,1)">
			<title>Лист.64</title>
			<path d="M49.42 232.99 A14.8808 14.8808 -180 0 0 34.02 242.86 A19.7716 19.7716 0 0 1 61.89 242.35 A31.1811 31.1811 -180
						 0 0 43.34 264.12 L12.76 264.12 A9.7246 9.7246 0 0 1 12.21 264.12 A9.7246 9.7246 0 0 1 2.83 255.61 L2.83
						 244.84 A3.86031 3.86031 0 1 1 5.67 251.93 A2.98061 2.98061 -180 0 0 10.49 248.53 A6.84011 6.84011 0 0 1
						 9.35 259.87 A6.78152 6.78152 -180 0 0 13.32 247.96 A23.1249 23.1249 -180 0 0 33.35 252.52 A18.0403 14.6571
						 160 0 1 34.08 252.35 A13.1532 10.6865 -20 0 0 44.45 237.97 A14.5286 11.804 160 0 1 20.69 248.53 A21.3811
						 21.3811 -180 0 0 2.83 242.86 L2.83 198.54 A56.2207 56.2207 -180 0 0 36.47 164.91 L46.77 164.91 A40.1294
						 40.1294 -180 0 0 54.36 176.75 A7.61059 7.61059 114.95 0 1 54.6 176.91 A7.21041 7.21041 160 0 1 54.62 177.03
						 A40.1294 40.1294 -180 0 0 56.69 179.08 A20.7408 20.7408 0 0 1 58.96 201.76 A9.47112 9.47112 -180 0 0 51.7
						 189.97 A11.1606 11.1606 0 0 1 55.28 206.01 A16.994 16.994 -180 0 0 55.28 228.69 A17.3494 17.3494 0 0 1 59.37
						 205.12 A22.5384 22.5384 -180 0 0 56.69 173.98 A23.3514 23.3514 0 0 1 51.02 164.91 L55.71 164.91 A19.8963
						 19.8963 0 0 1 66.33 181.91 L66.33 240.91 A31.1811 31.1811 -180 0 0 65.9 241.02 L65.87 240.99 A21.3698 21.3698
						 0 0 1 61.23 223.44 A10.1631 10.1631 -180 0 0 60.84 236.55 A22.4723 22.4723 -180 0 0 49.42 232.99 ZM49.42
						 232.99 A8.24235 8.24235 -180 0 0 43.37 223.02 A8.081 8.081 -180 0 0 49.42 232.99 ZM34.08 252.35 A13.1532
						 10.6865 160 0 1 33.35 252.52 A15.0089 12.1942 160 0 1 35.02 253.3 A7.84049 6.3701 -20 0 0 42.43 252.24 A18.0403
						 14.6571 -20 0 0 34.08 252.35 ZM35.02 253.3 A7.84049 6.3701 160 0 1 33.35 252.52 A15.4812 12.5779 -20 0 0
						 40.41 260.56 A15.0089 12.1942 -20 0 0 35.02 253.3 ZM0 255.61 A15.3838 15.3838 -180 0 0 2.83 261.28 A15.3838
						 15.3838 -180 0 0 5.78 264.12 A15.3838 15.3838 -180 0 0 12.76 266.95 L45.68 266.95 A28.3465 28.3465 0 0 1
						 46.25 264.12 A28.3465 28.3465 0 0 1 66.33 243.83 A28.3465 28.3465 0 0 1 69.73 243.14 L69.73 181.91 A20.4451
						 20.4451 -180 0 0 66.33 170.71 A20.4451 20.4451 -180 0 0 60.5 164.91 A20.4451 20.4451 -180 0 0 53.86 162.07
						 L34.87 162.07 A52.2797 52.2797 0 0 1 33.9 164.91 A52.2797 52.2797 0 0 1 2.83 195.71 A52.2797 52.2797 0 0
						 1 0 196.65 L0 255.61 ZM54.36 176.75 A7.61059 7.61059 -65.05 0 0 46.77 176.58 A18.3313 18.3313 -155.05 0
						 0 53.92 177.01 A7.35438 7.35438 69.8 0 1 54.51 176.92 A40.1294 40.1294 0 0 1 54.36 176.75 ZM53.92 177.01
						 A7.35438 7.35438 -110.28 0 0 48.09 185.02 A7.21041 7.21041 -20 0 0 54.62 177.03 L54.52 176.92 A18.3313 18.3313
						 24.95 0 1 53.92 177.01 Z" class="st3"/>
		</g>
		<g id="shape66-75" v:mID="66" v:groupContext="shape" transform="translate(37.1192,408.929) scale(1,-1)">
			<title>Лист.66</title>
			<path d="M0.55 266.95 L0 266.95 A9.7246 9.7246 -180 0 0 0.55 266.95 Z" class="st2"/>
		</g>
		<g id="shape72-77" v:mID="72" v:groupContext="shape" transform="translate(75.9331,401.846) scale(1,-1)">
			<title>Лист.72</title>
			<path d="M1.14 259.87 A22.6772 22.6772 -180 0 0 0.4 262.7 A22.6772 22.6772 -180 0 0 0 266.95 L2.83 266.95 A19.8425 19.8425
						 0 0 1 3.3 262.7 A19.8425 19.8425 0 0 1 4.14 259.87 A19.8425 19.8425 0 0 1 15.31 248.53 A19.8425 19.8425
						 0 0 1 18.71 247.51 A19.8425 19.8425 0 0 1 22.68 247.11 L22.68 244.28 A22.6772 22.6772 -180 0 0 18.71 244.63
						 A22.6772 22.6772 -180 0 0 15.31 245.51 A22.6772 22.6772 -180 0 0 1.14 259.87 Z" class="st3"/>
		</g>
		<g id="shape74-79" v:mID="74" v:groupContext="shape" transform="translate(92.5005,404.604) scale(1,-1)">
			<title>Лист.74</title>
			<path d="M2.71 252.14 A14.9214 14.9214 -180 0 0 0 252.72 L4.47 266.95 L2.71 252.14 Z" class="st3"/>
		</g>
		<g id="shape78-81" v:mID="78" v:groupContext="shape" transform="translate(81.0354,403.317) scale(1,-1)">
			<title>Лист.78</title>
			<path d="M0 265.67 L14.7 266.95 L0.55 262.75 A14.7514 14.7514 -180 0 0 -0 265.67 Z" class="st3"/>
		</g>
		<g id="shape79-83" v:mID="79" v:groupContext="shape" transform="translate(87.2717,405.304) scale(1,-1)">
			<title>Лист.79</title>
			<path d="M0 264.17 L7.55 266.95 L4.24 259.62 A8.04598 8.04598 -180 0 0 0 264.17 Z" class="st3"/>
		</g>
		<g id="shape84-85" v:mID="84" v:groupContext="shape" transform="translate(26.6102,495.106) scale(1,-1)">
			<title>Лист.84</title>
			<path d="M0 259.87 A7.08661 7.08661 -180 1 0 14.17 259.87 A7.08661 7.08661 -180 0 0 -0 259.87 Z" class="st3"/>
		</g>
		<g id="shape85-87" v:mID="85" v:groupContext="shape" transform="translate(39.0827,508.146) scale(1,-1)">
			<title>Лист.85</title>
			<path d="M0 262.7 A4.25197 4.25197 -180 0 0 8.5 262.7 A4.25197 4.25197 -180 1 0 0 262.7 Z" class="st3"/>
		</g>
		<g id="shape86-89" v:mID="86" v:groupContext="shape" transform="translate(19.8071,488.02) scale(1,-1)">
			<title>Лист.86</title>
			<path d="M8.5 262.7 A4.25197 4.25197 -180 1 0 0 262.7 A4.25197 4.25197 -180 0 0 8.5 262.7 Z" class="st3"/>
		</g>
		<g id="shape87-91" v:mID="87" v:groupContext="shape" transform="translate(58.2573,420.534) scale(1,-1)">
			<title>Лист.87</title>
			<path d="M0 266.95 A13.1532 10.6865 -20 0 0 0.73 266.78 A18.0403 14.6571 -20 0 0 0 266.95 Z" class="st2"/>
		</g>
		<g id="shape88-93" v:mID="88" v:groupContext="shape" transform="translate(58.2573,419.753) scale(1,-1)">
			<title>Лист.88</title>
			<path d="M0 266.17 A7.84049 6.3701 -20 0 0 1.67 266.95 A15.0089 12.1942 -20 0 0 0 266.17 Z" class="st2"/>
		</g>
		<g id="shape89-95" v:mID="89" v:groupContext="shape" transform="translate(78.8339,496.037) scale(1,-1)">
			<title>Лист.89</title>
			<path d="M-0 266.95 A18.3313 18.3313 -155.02 0 0 0.59 266.86 L0.59 266.86 A7.35438 7.35438 -110.15 0 0 -0 266.95 Z"
					class="st2"/>
		</g>
		<g id="shape90-97" v:mID="90" v:groupContext="shape" transform="translate(79.4227,496.129) scale(1,-1)">
			<title>Лист.90</title>
			<path d="M0.09 266.94 A7.35438 7.35438 -110.15 0 0 0 266.95 L0 266.95 L0.09 266.94 Z" class="st2"/>
		</g>
		<g id="shape91-99" v:mID="91" v:groupContext="shape" transform="translate(79.427,496.019) scale(1,-1)">
			<title>Лист.91</title>
			<path d="M0.09 266.83 L0 266.84 L0.1 266.95 A7.21041 7.21041 -20 0 0 0.09 266.83 Z" class="st2"/>
		</g>
		<g id="shape92-101" v:mID="92" v:groupContext="shape" transform="translate(79.269,496.133) scale(1,-1)">
			<title>Лист.92</title>
			<path d="M0 266.79 A40.1294 40.1294 -180 0 0 0.15 266.95 A7.35438 7.35438 69.85 0 1 0.25 266.94 A7.61059 7.61059 -65.04
						 0 0 -0 266.79 Z" class="st2"/>
		</g>
		<g id="shape94-103" v:mID="94" v:groupContext="shape" transform="translate(81.8858,453.598) scale(1,-1)">
			<title>Лист.94</title>
			<path d="M0 264.4 A2.55118 2.55118 -180 0 0 5.1 264.4 A2.55118 2.55118 -180 0 0 0 264.4 Z" class="st3"/>
		</g>
		<g id="shape95-105" v:mID="95" v:groupContext="shape" transform="translate(46.4528,412.496) scale(1,-1)">
			<title>Лист.95</title>
			<path d="M0 264.4 A2.55118 2.55118 -180 0 0 5.1 264.4 A2.55118 2.55118 -180 0 0 0 264.4 Z" class="st3"/>
		</g>
		<g id="shape96-107" v:mID="96" v:groupContext="shape" transform="translate(54.1063,441.531) scale(1,-1)">
			<title>Лист.96</title>
			<path d="M0 264.4 A2.55118 2.55118 -180 1 0 5.1 264.4 A2.55118 2.55118 -180 0 0 0 264.4 Z" class="st3"/>
		</g>
		<g id="shape97-109" v:mID="97" v:groupContext="shape" transform="translate(24.9094,406.098) scale(1,-1)">
			<title>Лист.97</title>
			<path d="M49.42 232.99 A14.8808 14.8808 -180 0 0 34.02 242.86 A19.7716 19.7716 0 0 1 61.89 242.35 A31.1811 31.1811 -180
						 0 0 43.34 264.12 L12.76 264.12 A9.7246 9.7246 0 0 1 12.21 264.12 A9.7246 9.7246 0 0 1 2.83 255.61 L2.83
						 244.84 A3.86031 3.86031 0 1 1 5.67 251.93 A2.98061 2.98061 -180 0 0 10.49 248.53 A6.84011 6.84011 0 0 1
						 9.35 259.87 A6.78152 6.78152 -180 0 0 13.32 247.96 A23.1249 23.1249 -180 0 0 33.35 252.52 A18.0403 14.6571
						 160 0 1 34.08 252.35 A13.1532 10.6865 -20 0 0 44.45 237.97 A14.5286 11.804 160 0 1 20.69 248.53 A21.3811
						 21.3811 -180 0 0 2.83 242.86 L2.83 198.54 A56.2207 56.2207 -180 0 0 36.47 164.91 L46.77 164.91 A40.1294
						 40.1294 -180 0 0 54.36 176.75 A7.61059 7.61059 114.95 0 1 54.6 176.91 A7.21041 7.21041 160 0 1 54.62 177.03
						 A40.1294 40.1294 -180 0 0 56.69 179.08 A20.7408 20.7408 0 0 1 58.96 201.76 A9.47112 9.47112 -180 0 0 51.7
						 189.97 A11.1606 11.1606 0 0 1 55.28 206.01 A16.994 16.994 -180 0 0 55.28 228.69 A17.3494 17.3494 0 0 1 59.37
						 205.12 A22.5384 22.5384 -180 0 0 56.69 173.98 A23.3514 23.3514 0 0 1 51.02 164.91 L55.71 164.91 A19.8963
						 19.8963 0 0 1 66.33 181.91 L66.33 240.91 A31.1811 31.1811 -180 0 0 65.9 241.02 L65.87 240.99 A21.3698 21.3698
						 0 0 1 61.23 223.44 A10.1631 10.1631 -180 0 0 60.84 236.55 A22.4723 22.4723 -180 0 0 49.42 232.99 ZM49.42
						 232.99 A8.24235 8.24235 -180 0 0 43.37 223.02 A8.081 8.081 -180 0 0 49.42 232.99 ZM34.08 252.35 A13.1532
						 10.6865 160 0 1 33.35 252.52 A15.0089 12.1942 160 0 1 35.02 253.3 A7.84049 6.3701 -20 0 0 42.43 252.24 A18.0403
						 14.6571 -20 0 0 34.08 252.35 ZM35.02 253.3 A7.84049 6.3701 160 0 1 33.35 252.52 A15.4812 12.5779 -20 0 0
						 40.41 260.56 A15.0089 12.1942 -20 0 0 35.02 253.3 ZM0 255.61 A15.3838 15.3838 -180 0 0 2.83 261.28 A15.3838
						 15.3838 -180 0 0 5.78 264.12 A15.3838 15.3838 -180 0 0 12.76 266.95 L45.68 266.95 A28.3465 28.3465 0 0 1
						 46.25 264.12 A28.3465 28.3465 0 0 1 66.33 243.83 A28.3465 28.3465 0 0 1 69.73 243.14 L69.73 181.91 A20.4451
						 20.4451 -180 0 0 66.33 170.71 A20.4451 20.4451 -180 0 0 60.5 164.91 A20.4451 20.4451 -180 0 0 53.86 162.07
						 L34.87 162.07 A52.2797 52.2797 0 0 1 33.9 164.91 A52.2797 52.2797 0 0 1 2.83 195.71 A52.2797 52.2797 0 0
						 1 0 196.65 L0 255.61 ZM54.36 176.75 A7.61059 7.61059 -65.05 0 0 46.77 176.58 A18.3313 18.3313 -155.05 0
						 0 53.92 177.01 A7.35438 7.35438 69.8 0 1 54.51 176.92 A40.1294 40.1294 0 0 1 54.36 176.75 ZM53.92 177.01
						 A7.35438 7.35438 -110.28 0 0 48.09 185.02 A7.21041 7.21041 -20 0 0 54.62 177.03 L54.52 176.92 A18.3313 18.3313
						 24.95 0 1 53.92 177.01 Z" class="st3"/>
		</g>
		<g id="shape99-111" v:mID="99" v:groupContext="shape" transform="translate(160.101,408.929) rotate(180)">
			<title>Лист.99</title>
			<path d="M0.55 266.95 L0 266.95 A9.7246 9.7246 -180 0 0 0.55 266.95 Z" class="st2"/>
		</g>
		<g id="shape104-113" v:mID="104" v:groupContext="shape" transform="translate(121.287,401.846) rotate(180)">
			<title>Лист.104</title>
			<path d="M1.14 259.87 A22.6772 22.6772 -180 0 0 0.4 262.7 A22.6772 22.6772 -180 0 0 0 266.95 L2.83 266.95 A19.8425 19.8425
						 0 0 1 3.3 262.7 A19.8425 19.8425 0 0 1 4.14 259.87 A19.8425 19.8425 0 0 1 15.31 248.53 A19.8425 19.8425
						 0 0 1 18.71 247.51 A19.8425 19.8425 0 0 1 22.68 247.11 L22.68 244.28 A22.6772 22.6772 -180 0 0 18.71 244.63
						 A22.6772 22.6772 -180 0 0 15.31 245.51 A22.6772 22.6772 -180 0 0 1.14 259.87 Z" class="st3"/>
		</g>
		<g id="shape105-115" v:mID="105" v:groupContext="shape" transform="translate(104.72,404.604) rotate(180)">
			<title>Лист.105</title>
			<path d="M2.71 252.14 A14.9214 14.9214 -180 0 0 0 252.72 L4.47 266.95 L2.71 252.14 Z" class="st3"/>
		</g>
		<g id="shape106-117" v:mID="106" v:groupContext="shape" transform="translate(116.185,403.317) rotate(180)">
			<title>Лист.106</title>
			<path d="M0 265.67 L14.7 266.95 L0.55 262.75 A14.7514 14.7514 -180 0 0 -0 265.67 Z" class="st3"/>
		</g>
		<g id="shape107-119" v:mID="107" v:groupContext="shape" transform="translate(109.949,405.304) rotate(180)">
			<title>Лист.107</title>
			<path d="M0 264.17 L7.55 266.95 L4.24 259.62 A8.04598 8.04598 -180 0 0 0 264.17 Z" class="st3"/>
		</g>
		<g id="shape108-121" v:mID="108" v:groupContext="shape" transform="translate(170.61,495.106) rotate(180)">
			<title>Лист.108</title>
			<path d="M0 259.87 A7.08661 7.08661 -180 1 0 14.17 259.87 A7.08661 7.08661 -180 0 0 -0 259.87 Z" class="st3"/>
		</g>
		<g id="shape109-123" v:mID="109" v:groupContext="shape" transform="translate(158.138,508.146) rotate(180)">
			<title>Лист.109</title>
			<path d="M0 262.7 A4.25197 4.25197 -180 0 0 8.5 262.7 A4.25197 4.25197 -180 1 0 0 262.7 Z" class="st3"/>
		</g>
		<g id="shape110-125" v:mID="110" v:groupContext="shape" transform="translate(177.413,488.02) rotate(180)">
			<title>Лист.110</title>
			<path d="M8.5 262.7 A4.25197 4.25197 -180 1 0 0 262.7 A4.25197 4.25197 -180 0 0 8.5 262.7 Z" class="st3"/>
		</g>
		<g id="shape111-127" v:mID="111" v:groupContext="shape" transform="translate(138.963,420.534) rotate(180)">
			<title>Лист.111</title>
			<path d="M0 266.95 A13.1532 10.6865 -20 0 0 0.73 266.78 A18.0403 14.6571 -20 0 0 0 266.95 Z" class="st2"/>
		</g>
		<g id="shape112-129" v:mID="112" v:groupContext="shape" transform="translate(138.963,419.753) rotate(180)">
			<title>Лист.112</title>
			<path d="M0 266.17 A7.84049 6.3701 -20 0 0 1.67 266.95 A15.0089 12.1942 -20 0 0 0 266.17 Z" class="st2"/>
		</g>
		<g id="shape113-131" v:mID="113" v:groupContext="shape" transform="translate(118.387,496.037) rotate(180)">
			<title>Лист.113</title>
			<path d="M-0 266.95 A18.3313 18.3313 -155.02 0 0 0.59 266.86 L0.59 266.86 A7.35438 7.35438 -110.15 0 0 -0 266.95 Z"
					class="st2"/>
		</g>
		<g id="shape114-133" v:mID="114" v:groupContext="shape" transform="translate(117.798,496.129) rotate(180)">
			<title>Лист.114</title>
			<path d="M0.09 266.94 A7.35438 7.35438 -110.15 0 0 0 266.95 L0 266.95 L0.09 266.94 Z" class="st2"/>
		</g>
		<g id="shape115-135" v:mID="115" v:groupContext="shape" transform="translate(117.793,496.019) rotate(180)">
			<title>Лист.115</title>
			<path d="M0.09 266.83 L0 266.84 L0.1 266.95 A7.21041 7.21041 -20 0 0 0.09 266.83 Z" class="st2"/>
		</g>
		<g id="shape116-137" v:mID="116" v:groupContext="shape" transform="translate(117.951,496.133) rotate(180)">
			<title>Лист.116</title>
			<path d="M0 266.79 A40.1294 40.1294 -180 0 0 0.15 266.95 A7.35438 7.35438 69.85 0 1 0.25 266.94 A7.61059 7.61059 -65.04
						 0 0 -0 266.79 Z" class="st2"/>
		</g>
		<g id="shape118-139" v:mID="118" v:groupContext="shape" transform="translate(115.335,453.598) rotate(180)">
			<title>Лист.118</title>
			<path d="M0 264.4 A2.55118 2.55118 -180 0 0 5.1 264.4 A2.55118 2.55118 -180 0 0 0 264.4 Z" class="st3"/>
		</g>
		<g id="shape119-141" v:mID="119" v:groupContext="shape" transform="translate(150.768,412.496) rotate(180)">
			<title>Лист.119</title>
			<path d="M0 264.4 A2.55118 2.55118 -180 0 0 5.1 264.4 A2.55118 2.55118 -180 0 0 0 264.4 Z" class="st3"/>
		</g>
		<g id="shape120-143" v:mID="120" v:groupContext="shape" transform="translate(143.114,441.531) rotate(180)">
			<title>Лист.120</title>
			<path d="M0 264.4 A2.55118 2.55118 -180 1 0 5.1 264.4 A2.55118 2.55118 -180 0 0 0 264.4 Z" class="st3"/>
		</g>
		<g id="shape121-145" v:mID="121" v:groupContext="shape" transform="translate(172.311,406.098) rotate(180)">
			<title>Лист.121</title>
			<path d="M49.42 232.99 A14.8808 14.8808 -180 0 0 34.02 242.86 A19.7716 19.7716 0 0 1 61.89 242.35 A31.1811 31.1811 -180
						 0 0 43.34 264.12 L12.76 264.12 A9.7246 9.7246 0 0 1 12.21 264.12 A9.7246 9.7246 0 0 1 2.83 255.61 L2.83
						 244.84 A3.86031 3.86031 0 1 1 5.67 251.93 A2.98061 2.98061 -180 0 0 10.49 248.53 A6.84011 6.84011 0 0 1
						 9.35 259.87 A6.78152 6.78152 -180 0 0 13.32 247.96 A23.1249 23.1249 -180 0 0 33.35 252.52 A18.0403 14.6571
						 160 0 1 34.08 252.35 A13.1532 10.6865 -20 0 0 44.45 237.97 A14.5286 11.804 160 0 1 20.69 248.53 A21.3811
						 21.3811 -180 0 0 2.83 242.86 L2.83 198.54 A56.2207 56.2207 -180 0 0 36.47 164.91 L46.77 164.91 A40.1294
						 40.1294 -180 0 0 54.36 176.75 A7.61059 7.61059 114.95 0 1 54.6 176.91 A7.21041 7.21041 160 0 1 54.62 177.03
						 A40.1294 40.1294 -180 0 0 56.69 179.08 A20.7408 20.7408 0 0 1 58.96 201.76 A9.47112 9.47112 -180 0 0 51.7
						 189.97 A11.1606 11.1606 0 0 1 55.28 206.01 A16.994 16.994 -180 0 0 55.28 228.69 A17.3494 17.3494 0 0 1 59.37
						 205.12 A22.5384 22.5384 -180 0 0 56.69 173.98 A23.3514 23.3514 0 0 1 51.02 164.91 L55.71 164.91 A19.8963
						 19.8963 0 0 1 66.33 181.91 L66.33 240.91 A31.1811 31.1811 -180 0 0 65.9 241.02 L65.87 240.99 A21.3698 21.3698
						 0 0 1 61.23 223.44 A10.1631 10.1631 -180 0 0 60.84 236.55 A22.4723 22.4723 -180 0 0 49.42 232.99 ZM49.42
						 232.99 A8.24235 8.24235 -180 0 0 43.37 223.02 A8.081 8.081 -180 0 0 49.42 232.99 ZM34.08 252.35 A13.1532
						 10.6865 160 0 1 33.35 252.52 A15.0089 12.1942 160 0 1 35.02 253.3 A7.84049 6.3701 -20 0 0 42.43 252.24 A18.0403
						 14.6571 -20 0 0 34.08 252.35 ZM35.02 253.3 A7.84049 6.3701 160 0 1 33.35 252.52 A15.4812 12.5779 -20 0 0
						 40.41 260.56 A15.0089 12.1942 -20 0 0 35.02 253.3 ZM0 255.61 A15.3838 15.3838 -180 0 0 2.83 261.28 A15.3838
						 15.3838 -180 0 0 5.78 264.12 A15.3838 15.3838 -180 0 0 12.76 266.95 L45.68 266.95 A28.3465 28.3465 0 0 1
						 46.25 264.12 A28.3465 28.3465 0 0 1 66.33 243.83 A28.3465 28.3465 0 0 1 69.73 243.14 L69.73 181.91 A20.4451
						 20.4451 -180 0 0 66.33 170.71 A20.4451 20.4451 -180 0 0 60.5 164.91 A20.4451 20.4451 -180 0 0 53.86 162.07
						 L34.87 162.07 A52.2797 52.2797 0 0 1 33.9 164.91 A52.2797 52.2797 0 0 1 2.83 195.71 A52.2797 52.2797 0 0
						 1 0 196.65 L0 255.61 ZM54.36 176.75 A7.61059 7.61059 -65.05 0 0 46.77 176.58 A18.3313 18.3313 -155.05 0
						 0 53.92 177.01 A7.35438 7.35438 69.8 0 1 54.51 176.92 A40.1294 40.1294 0 0 1 54.36 176.75 ZM53.92 177.01
						 A7.35438 7.35438 -110.28 0 0 48.09 185.02 A7.21041 7.21041 -20 0 0 54.62 177.03 L54.52 176.92 A18.3313 18.3313
						 24.95 0 1 53.92 177.01 Z" class="st3"/>
		</g>
		<g id="shape3-147" v:mID="3" v:groupContext="shape" transform="translate(13.5709,-11.5866)">
			<title>Лист.3</title>
			<path d="M85.04 26.01 L39.69 26.01 A42.9866 42.9866 0 0 1 38.56 33.09 A42.9866 42.9866 0 0 1 37.28 37.35 A42.9866 42.9866
						 0 0 1 36.14 40.18 A42.9866 42.9866 0 0 1 14.17 62.15 A42.9866 42.9866 0 0 1 11.34 63.28 A42.9866 42.9866
						 0 0 1 7.09 64.57 A42.9866 42.9866 0 0 1 -0 65.69 L0 227.27 A42.9866 42.9866 -0 0 1 7.09 228.39 A42.9866
						 42.9866 -0 0 1 11.34 229.68 A42.9866 42.9866 -0 0 1 14.17 230.81 A42.9866 42.9866 -0 0 1 36.14 252.78 A42.9866
						 42.9866 -0 0 1 37.28 255.61 A42.9866 42.9866 -0 0 1 38.56 259.87 A42.9866 42.9866 -0 0 1 39.69 266.95 L130.39
						 266.95 A42.9866 42.9866 0 0 1 131.52 259.87 A42.9866 42.9866 0 0 1 132.8 255.61 A42.9866 42.9866 0 0 1 133.94
						 252.78 A42.9866 42.9866 0 0 1 155.91 230.81 A42.9866 42.9866 0 0 1 158.74 229.68 A42.9866 42.9866 0 0 1
						 162.99 228.39 A42.9866 42.9866 0 0 1 170.08 227.27 L170.08 146.48 L170.08 65.69 A42.9866 42.9866 -180 0
						 1 162.99 64.57 A42.9866 42.9866 -180 0 1 158.74 63.28 A42.9866 42.9866 -180 0 1 155.91 62.15 A42.9866 42.9866
						 -180 0 1 133.94 40.18 A42.9866 42.9866 -180 0 1 132.8 37.35 A42.9866 42.9866 -180 0 1 131.52 33.09 A42.9866
						 42.9866 -180 0 1 130.39 26.01 L85.04 26.01 ZM162.99 146.48 L162.99 222.61 A48.7737 48.7737 -180 0 0 158.74
						 223.74 A48.7737 48.7737 -180 0 0 155.91 224.73 A48.7737 48.7737 -180 0 0 127.85 252.78 A48.7737 48.7737
						 -180 0 0 126.86 255.61 A48.7737 48.7737 -180 0 0 125.73 259.87 L85.04 259.87 L44.35 259.87 A48.7737 48.7737
						 180 0 0 43.22 255.61 A48.7737 48.7737 180 0 0 42.23 252.78 A48.7737 48.7737 180 0 0 14.17 224.73 A48.7737
						 48.7737 180 0 0 11.34 223.74 A48.7737 48.7737 180 0 0 7.09 222.61 L7.09 70.35 A48.7737 48.7737 -180 0 0
						 11.34 69.22 A48.7737 48.7737 -180 0 0 14.17 68.23 A48.7737 48.7737 -180 0 0 42.23 40.18 A48.7737 48.7737
						 -180 0 0 43.22 37.35 A48.7737 48.7737 -180 0 0 44.35 33.09 L85.04 33.09 L125.73 33.09 A48.7737 48.7737 0
						 0 0 126.86 37.35 A48.7737 48.7737 0 0 0 127.85 40.18 A48.7737 48.7737 0 0 0 155.91 68.23 A48.7737 48.7737
						 0 0 0 158.74 69.22 A48.7737 48.7737 0 0 0 162.99 70.35 L162.99 146.48 Z" class="st3"/>
		</g>
	</g>
</svg>
