<?xml version="1.0" encoding="UTF-8" standalone="no"?>
<!DOCTYPE svg PUBLIC "-//W3C//DTD SVG 1.0//EN" "http://www.w3.org/TR/2001/REC-SVG-20010904/DTD/svg10.dtd">
<!-- Создано Microsoft Visio 11.0, Экспорт SVG, версия 1.0 masks2.svg Страница-1 -->
<svg xmlns="http://www.w3.org/2000/svg" xmlns:xlink="http://www.w3.org/1999/xlink" xmlns:ev="http://www.w3.org/2001/xml-events"
		xmlns:v="http://schemas.microsoft.com/visio/2003/SVGExtensions/" width="1.74147in" height="2.13517in"
		viewBox="0 0 125.386 153.732" xml:space="preserve" color-interpolation-filters="sRGB" class="st14">
	<v:documentProperties v:langID="1049" v:metric="true" v:viewMarkup="false"/>

	<style type="text/css">
	<![CDATA[
		.st1 {fill:#c00000;stroke:#f5deb3;stroke-linecap:round;stroke-linejoin:round;stroke-width:6}
		.st2 {fill:url(#grad40-6);stroke:#000000;stroke-linecap:round;stroke-linejoin:round;stroke-width:1.5}
		.st3 {fill:url(#grad40-10);stroke:#000000;stroke-linecap:round;stroke-linejoin:round;stroke-width:0.75}
		.st4 {fill:url(#grad35-14);stroke:#000000;stroke-linecap:round;stroke-linejoin:round;stroke-width:0.75}
		.st5 {fill:url(#grad40-22);stroke:#000000;stroke-linecap:round;stroke-linejoin:round;stroke-width:0.75}
		.st6 {fill:url(#grad40-29);stroke:#000000;stroke-linecap:round;stroke-linejoin:round;stroke-width:0.75}
		.st7 {fill:url(#grad38-36);stroke:#000000;stroke-linecap:round;stroke-linejoin:round;stroke-width:0.25}
		.st8 {fill:url(#grad38-40);stroke:#000000;stroke-linecap:round;stroke-linejoin:round;stroke-width:0.25}
		.st9 {fill:url(#grad26-44);stroke:#000000;stroke-linecap:round;stroke-linejoin:round;stroke-width:0.75}
		.st10 {fill:url(#grad40-51);stroke:none;stroke-linecap:round;stroke-linejoin:round;stroke-width:0.25}
		.st11 {fill:url(#grad40-58);stroke:none;stroke-linecap:round;stroke-linejoin:round;stroke-width:0.25}
		.st12 {fill:url(#grad30-65);stroke:none;stroke-linecap:round;stroke-linejoin:round;stroke-width:0.25}
		.st13 {fill:url(#grad28-69);stroke:#000000;stroke-linecap:round;stroke-linejoin:round;stroke-width:0.25}
		.st14 {fill:none;fill-rule:evenodd;font-size:12;overflow:visible;stroke-linecap:square;stroke-miterlimit:3}
	]]>
	</style>

	<defs id="Patterns_And_Gradients">
		<radialGradient id="grad40-6" v:fillPattern="40" v:foreground="#ff0000" v:background="#c00000" cx="0.5" cy="0.5" r="0.5">
			<stop offset="0" style="stop-color:#ff0000;stop-opacity:1"/>
			<stop offset="1" style="stop-color:#c00000;stop-opacity:1"/>
		</radialGradient>
		<radialGradient id="grad40-10" v:fillPattern="40" v:foreground="#000000" v:background="#000000" cx="0.5" cy="0.5" r="0.5">
			<stop offset="0" style="stop-color:#000000;stop-opacity:1"/>
			<stop offset="1" style="stop-color:#000000;stop-opacity:1"/>
		</radialGradient>
		<pattern id="grad35-14" v:fillPattern="35" v:foreground="#200e23" v:background="#000000" x="0" y="0" width="1" height="1"
				patternContentUnits="objectBoundingBox">
			<path d="M 0.5 0.5 L 0 0 L 0 1 z" style="fill:url(#grad27-15)"/>
			<path d="M 0.5 0.5 L 1 0 L 1 1 z" style="fill:url(#grad25-16)"/>
			<path d="M 0.5 0.5 L 0 0 L 1 0 z" style="fill:url(#grad30-17)"/>
			<path d="M 0.5 0.5 L 0 1 L 1 1 z" style="fill:url(#grad28-18)"/>
		</pattern>
		<linearGradient id="grad27-15" v:fillPattern="35" v:foreground="#200e23" v:background="#000000" x1="1" y1="0" x2="0" y2="0">
			<stop offset="0" style="stop-color:#200e23;stop-opacity:1"/>
			<stop offset="1" style="stop-color:#000000;stop-opacity:1"/>
		</linearGradient>
		<linearGradient id="grad25-16" v:fillPattern="35" v:foreground="#200e23" v:background="#000000" x1="0" y1="0" x2="1" y2="0">
			<stop offset="0" style="stop-color:#200e23;stop-opacity:1"/>
			<stop offset="1" style="stop-color:#000000;stop-opacity:1"/>
		</linearGradient>
		<linearGradient id="grad30-17" v:fillPattern="35" v:foreground="#200e23" v:background="#000000" x1="0" y1="1" x2="0" y2="0">
			<stop offset="0" style="stop-color:#200e23;stop-opacity:1"/>
			<stop offset="1" style="stop-color:#000000;stop-opacity:1"/>
		</linearGradient>
		<linearGradient id="grad28-18" v:fillPattern="35" v:foreground="#200e23" v:background="#000000" x1="0" y1="0" x2="0" y2="1">
			<stop offset="0" style="stop-color:#200e23;stop-opacity:1"/>
			<stop offset="1" style="stop-color:#000000;stop-opacity:1"/>
		</linearGradient>
		<radialGradient id="grad40-22" v:fillPattern="40" v:foreground="#1e1e1e" v:background="#7b408e" cx="0.5" cy="0.5" r="0.5">
			<stop offset="0" style="stop-color:#1e1e1e;stop-opacity:1"/>
			<stop offset="1" style="stop-color:#7b408e;stop-opacity:1"/>
		</radialGradient>
		<radialGradient id="grad40-29" v:fillPattern="40" v:foreground="#000000" v:background="#7b408e" cx="0.5" cy="0.5" r="0.5">
			<stop offset="0" style="stop-color:#000000;stop-opacity:1"/>
			<stop offset="1" style="stop-color:#7b408e;stop-opacity:1"/>
		</radialGradient>
		<radialGradient id="grad38-36" v:fillPattern="38" v:foreground="#1e1e1e" v:background="#000000" cx="0" cy="1" r="1">
			<stop offset="0" style="stop-color:#1e1e1e;stop-opacity:1"/>
			<stop offset="1" style="stop-color:#000000;stop-opacity:1"/>
		</radialGradient>
		<radialGradient id="grad38-40" v:fillPattern="38" v:foreground="#000000" v:background="#000000" cx="0" cy="1" r="1">
			<stop offset="0" style="stop-color:#000000;stop-opacity:1"/>
			<stop offset="1" style="stop-color:#000000;stop-opacity:1"/>
		</radialGradient>
		<linearGradient id="grad26-44" v:fillPattern="26" v:foreground="#7b408e" v:background="#000000" x1="0" y1="0" x2="1" y2="0">
			<stop offset="0" style="stop-color:#000000;stop-opacity:1"/>
			<stop offset="0.5" style="stop-color:#7b408e;stop-opacity:1"/>
			<stop offset="1" style="stop-color:#000000;stop-opacity:1"/>
		</linearGradient>
		<radialGradient id="grad40-51" v:fillPattern="40" v:foreground="#db31df" v:background="#000000" cx="0.5" cy="0.5" r="0.5">
			<stop offset="0" style="stop-color:#db31df;stop-opacity:1"/>
			<stop offset="1" style="stop-color:#000000;stop-opacity:1"/>
		</radialGradient>
		<radialGradient id="grad40-58" v:fillPattern="40" v:foreground="#ffffff" v:foregroundOpacity="0.2" v:background="#db31df"
				v:backgroundOpacity="0.2" cx="0.5" cy="0.5" r="0.5">
			<stop offset="0" style="stop-color:#ffffff;stop-opacity:0.2"/>
			<stop offset="1" style="stop-color:#db31df;stop-opacity:0.2"/>
		</radialGradient>
		<linearGradient id="grad30-65" v:fillPattern="30" v:foreground="#212b4e" v:foregroundOpacity="0.3" v:background="#263259"
				v:backgroundOpacity="0.3" x1="0" y1="1" x2="0" y2="0">
			<stop offset="0" style="stop-color:#212b4e;stop-opacity:0.3"/>
			<stop offset="1" style="stop-color:#263259;stop-opacity:0.3"/>
		</linearGradient>
		<linearGradient id="grad28-69" v:fillPattern="28" v:foreground="#f0f0f0" v:background="#7b408e" x1="0" y1="0" x2="0" y2="1">
			<stop offset="0" style="stop-color:#f0f0f0;stop-opacity:1"/>
			<stop offset="1" style="stop-color:#7b408e;stop-opacity:1"/>
		</linearGradient>
	</defs>
	<g v:mID="0" v:index="1" v:groupContext="foregroundPage">
		<title>Страница-1</title>
		<v:pageProperties v:drawingScale="0.0393701" v:pageScale="0.0393701" v:drawingUnits="24" v:shadowOffsetX="8.50394"
				v:shadowOffsetY="-8.50394"/>
		<g id="shape1-1" v:mID="1" v:groupContext="shape" transform="translate(6,-6)">
			<title>Лист.1</title>
			<v:userDefs>
				<v:ud v:nameU="msvThemeColors" v:val="VT0(36):26"/>
				<v:ud v:nameU="msvThemeEffects" v:val="VT0(16):26"/>
			</v:userDefs>
			<path d="M113.39 82.87 A65.9023 22.0767 56.11 0 1 56.69 12 A65.9023 22.0767 123.89 0 1 0 82.87 A65.9023 22.0767 56.11
						 0 1 56.69 153.73 A65.9023 22.0767 123.89 0 1 113.39 82.87 Z" class="st1"/>
		</g>
		<g id="shape3-3" v:mID="3" v:groupContext="shape" transform="translate(6,-6)">
			<title>Лист.3</title>
			<path d="M113.39 82.87 A65.9023 22.0767 56.11 0 1 56.69 12 A65.9023 22.0767 123.89 0 1 0 82.87 A65.9023 22.0767 56.11
						 0 1 56.69 153.73 A65.9023 22.0767 123.89 0 1 113.39 82.87 Z" class="st2"/>
		</g>
		<g id="shape4-7" v:mID="4" v:groupContext="shape" transform="translate(28.7813,-63.5953) rotate(-15)">
			<title>Лист.4</title>
			<v:userDefs>
				<v:ud v:nameU="msvThemeColors" v:val="VT0(36):26"/>
				<v:ud v:nameU="msvThemeEffects" v:val="VT0(16):26"/>
			</v:userDefs>
			<path d="M16.8 150.44 A7.61654 1.89278 17.16 0 1 6.55 147.17 A3.82744 1.10166 154.82 0 1 -0 150.44 A5.54972 3.90092 -165
						 0 0 6.55 153.72 A7.61654 1.89278 162.84 0 1 16.8 150.44 Z" class="st3"/>
		</g>
		<g id="shape5-11" v:mID="5" v:groupContext="shape" transform="translate(57.667,-38.7685) scale(-1,1)">
			<title>Лист.5</title>
			<v:userDefs>
				<v:ud v:nameU="msvThemeColors" v:val="VT0(36):26"/>
				<v:ud v:nameU="msvThemeEffects" v:val="VT0(16):26"/>
			</v:userDefs>
			<path d="M0.92 153.73 A21.77 9.27183 87.18 0 1 1.18 133.89 A2.47971 2.02509 -74.29 0 0 3.62 132.19 A4.8966 1.9368 -100.31
						 0 0 5.89 134.46 A35.441 17.1932 -100.47 0 0 0.92 153.73 Z" class="st4"/>
		</g>
		<g id="shape6-19" v:mID="6" v:groupContext="shape" transform="translate(24.4252,-27.2598)">
			<title>Лист.6</title>
			<path d="M12.32 104.13 A36.5567 13.6309 -90 0 0 21.63 71.53 A411.972 67.8863 94.85 0 1 -0 104.13 A137.132 104.55 91.8
						 0 1 29.76 153.73 A96.9163 47.5593 -84.73 0 0 27.68 140.72 A12.3365 5.25411 -92.82 0 0 27.48 131.15 A17.0517
						 8.27213 76.92 0 1 26.89 137.15 A96.9163 47.5593 -84.73 0 0 12.32 104.13 Z" class="st5"/>
		</g>
		<g id="shape7-23" v:mID="7" v:groupContext="shape" transform="translate(67.7188,-38.7685)">
			<title>Лист.7</title>
			<v:userDefs>
				<v:ud v:nameU="msvThemeColors" v:val="VT0(36):26"/>
				<v:ud v:nameU="msvThemeEffects" v:val="VT0(16):26"/>
			</v:userDefs>
			<path d="M0.92 153.73 A21.77 9.27183 87.18 0 1 1.18 133.89 A2.47971 2.02509 -74.29 0 0 3.62 132.19 A4.8966 1.9368 -100.31
						 0 0 5.89 134.46 A35.441 17.1932 -100.47 0 0 0.92 153.73 Z" class="st4"/>
		</g>
		<g id="shape8-26" v:mID="8" v:groupContext="shape" transform="translate(100.961,-27.2598) scale(-1,1)">
			<title>Лист.8</title>
			<path d="M12.32 104.13 A36.5567 13.6309 -90 0 0 21.63 71.53 A411.972 67.8863 94.85 0 1 -0 104.13 A137.132 104.55 91.8
						 0 1 29.76 153.73 A96.9163 47.5593 -84.73 0 0 27.68 140.72 A12.3365 5.25411 -92.82 0 0 27.48 131.15 A17.0517
						 8.27213 76.92 0 1 26.89 137.15 A96.9163 47.5593 -84.73 0 0 12.32 104.13 Z" class="st6"/>
		</g>
		<g id="shape9-30" v:mID="9" v:groupContext="shape" transform="translate(98.4057,-63.5953) rotate(15) scale(-1,1)">
			<title>Лист.9</title>
			<v:userDefs>
				<v:ud v:nameU="msvThemeColors" v:val="VT0(36):26"/>
				<v:ud v:nameU="msvThemeEffects" v:val="VT0(16):26"/>
			</v:userDefs>
			<path d="M16.8 150.44 A7.61654 1.89278 17.16 0 1 6.55 147.17 A3.82744 1.10166 154.82 0 1 -0 150.44 A5.54972 3.90092 -165
						 0 0 6.55 153.72 A7.61654 1.89278 162.84 0 1 16.8 150.44 Z" class="st3"/>
		</g>
		<g id="shape10-33" v:mID="10" v:groupContext="shape" transform="translate(64.1102,-78.0044)">
			<title>Лист.10</title>
			<path d="M5.88 135.46 A233.857 22.6811 92.79 0 1 6.17 134.67 A31.2526 22.3646 -70.8 0 0 6.24 135.03 A1.96531 1.29703
						 96.19 0 1 5.88 135.46 ZM12.76 146.65 A12.0525 6.65811 -60.29 0 0 3.48 153.73 A133.761 32.3702 119.16 0 1
						 17.01 147.78 A47.6345 42.0963 4.14 0 1 6.72 133.28 A233.857 22.6811 92.79 0 1 9.92 127.25 A78.0102 34.856
						 90.55 0 1 -0 99.03 A55.0152 15.8896 -87.44 0 0 0.7 106.43 a1.72802 0.443917 69.68 1 1 0.437644 2.51782 a2.81205
						 0.822296 73.15 0 1 0.283465 2.26772 A47.1306 13.6124 -88.29 0 0 5.81 127.25 A20.7995 4.54362 -90 0 0 2.71
						 145.8 A233.857 22.6811 92.79 0 1 5.82 135.62 A32.4938 23.2529 -76.63 0 0 12.76 146.65 Z" class="st7"/>
		</g>
		<g id="shape11-37" v:mID="11" v:groupContext="shape" transform="translate(62.6929,-78.0044) scale(-1,1)">
			<title>Лист.11</title>
			<v:userDefs>
				<v:ud v:nameU="msvThemeColors" v:val="VT0(36):26"/>
				<v:ud v:nameU="msvThemeEffects" v:val="VT0(16):26"/>
			</v:userDefs>
			<path d="M5.88 135.46 A233.857 22.6811 92.79 0 1 6.17 134.67 A31.2526 22.3646 -70.8 0 0 6.24 135.03 A1.96531 1.29703
						 96.19 0 1 5.88 135.46 ZM12.76 146.65 A12.0525 6.65811 -60.29 0 0 3.48 153.73 A133.761 32.3702 119.16 0 1
						 17.01 147.78 A47.6345 42.0963 4.14 0 1 6.72 133.28 A233.857 22.6811 92.79 0 1 9.92 127.25 A78.0102 34.856
						 90.55 0 1 -0 99.03 A55.0152 15.8896 -87.44 0 0 0.7 106.43 a1.72802 0.443917 69.68 1 1 0.437644 2.51782 a2.81205
						 0.822296 73.15 0 1 0.283465 2.26772 A47.1306 13.6124 -88.29 0 0 5.81 127.25 A20.7995 4.54362 -90 0 0 2.71
						 145.8 A233.857 22.6811 92.79 0 1 5.82 135.62 A32.4938 23.2529 -76.63 0 0 12.76 146.65 Z" class="st8"/>
		</g>
		<g id="shape12-41" v:mID="12" v:groupContext="shape" transform="translate(55.7339,-8.83465)">
			<title>Лист.12</title>
			<v:userDefs>
				<v:ud v:nameU="msvThemeColors" v:val="VT0(36):26"/>
				<v:ud v:nameU="msvThemeEffects" v:val="VT0(16):26"/>
			</v:userDefs>
			<path d="M13.92 137.43 A6.51418 1.46624 40.82 0 1 6.96 132.47 A6.51418 1.46624 139.18 0 1 0 137.43 A13.5089 3.04064 72.21
						 0 1 6.96 153.73 A13.5089 3.04064 107.79 0 1 13.92 137.43 Z" class="st9"/>
		</g>
		<g id="shape13-45" v:mID="13" v:groupContext="shape" transform="translate(57.6232,-35.1719)">
			<title>Лист.13</title>
			<path d="M4.93 152.93 A21.77 9.27183 -92.82 0 0 5.07 153.73 A21.77 9.27183 -87.18 0 0 5.21 152.93 A35.441 17.1932 79.53
						 0 1 5.85 146.71 A35.441 17.1932 79.53 0 1 10.14 134.97 A4.8966 1.9368 79.69 0 1 7.87 132.71 A2.75502 2.24992
						 109.61 0 1 5.04 134.41 A2.70849 2.21193 70.98 0 1 2.27 132.71 A4.8966 1.9368 100.31 0 1 -0 134.97 A35.441
						 17.1932 100.47 0 1 4.29 146.71 A35.441 17.1932 100.47 0 1 4.93 152.93 Z" class="st4"/>
		</g>
		<g id="shape16-48" v:mID="16" v:groupContext="shape" transform="translate(51.3543,-70.063)">
			<title>Эллипс</title>
			<v:userDefs>
				<v:ud v:nameU="visVersion" v:val="VT0(14):26"/>
				<v:ud v:nameU="msvThemeColors" v:val="VT0(36):26"/>
				<v:ud v:nameU="msvThemeEffects" v:val="VT0(16):26"/>
			</v:userDefs>
			<path d="M0 150.33 A1.98425 3.40157 0 0 1 3.97 150.33 A1.98425 3.40157 0 1 1 0 150.33 Z" class="st10"/>
		</g>
		<g id="shape14-52" v:mID="14" v:groupContext="shape" transform="translate(72.0472,-70.063)">
			<title>Эллипс.14</title>
			<v:userDefs>
				<v:ud v:nameU="visVersion" v:val="VT0(14):26"/>
				<v:ud v:nameU="msvThemeColors" v:val="VT0(36):26"/>
				<v:ud v:nameU="msvThemeEffects" v:val="VT0(16):26"/>
			</v:userDefs>
			<path d="M0 150.33 A1.98425 3.40157 0 0 1 3.97 150.33 A1.98425 3.40157 0 1 1 0 150.33 Z" class="st10"/>
		</g>
		<g id="shape15-55" v:mID="15" v:groupContext="shape" transform="translate(52.9134,-71.3993)">
			<title>Эллипс.15</title>
			<v:userDefs>
				<v:ud v:nameU="visVersion" v:val="VT0(14):26"/>
				<v:ud v:nameU="msvThemeColors" v:val="VT0(36):26"/>
				<v:ud v:nameU="msvThemeEffects" v:val="VT0(16):26"/>
			</v:userDefs>
			<path d="M0 151.67 a0.425197 2.06524 0 0 1 0.850394 0 a0.425197 2.06524 0 0 1 -0.850394 0 Z" class="st11"/>
		</g>
		<g id="shape17-59" v:mID="17" v:groupContext="shape" transform="translate(73.4646,-71.3993)">
			<title>Эллипс.17</title>
			<v:userDefs>
				<v:ud v:nameU="visVersion" v:val="VT0(14):26"/>
				<v:ud v:nameU="msvThemeColors" v:val="VT0(36):26"/>
				<v:ud v:nameU="msvThemeEffects" v:val="VT0(16):26"/>
			</v:userDefs>
			<path d="M0 151.67 a0.425197 2.06524 0 0 1 0.850394 0 a0.425197 2.06524 0 0 1 -0.850394 0 Z" class="st11"/>
		</g>
		<g id="shape18-62" v:mID="18" v:groupContext="shape" transform="translate(40.152,-54.7559)">
			<title>Лист.18</title>
			<v:userDefs>
				<v:ud v:nameU="msvThemeColors" v:val="VT0(36):26"/>
				<v:ud v:nameU="msvThemeEffects" v:val="VT0(16):26"/>
			</v:userDefs>
			<path d="M32.92 138.84 A5.54972 3.90092 0 0 1 27.18 137.04 A3.82744 1.10166 -40.18 0 0 31.79 133.86 A3.82744 1.10166
						 -40.18 0 0 32.6 132.55 A1.98425 3.40157 0 0 1 33.01 132.29 A7.61654 1.89278 -177.84 0 0 34.46 132.61 A7.61654
						 1.89278 -177.84 0 0 43.41 132.7 A7.61654 1.89278 -32.16 0 0 34.94 137.92 A7.61654 1.89278 -32.16 0 0 34.35
						 138.51 A5.54972 3.90092 0 0 1 32.92 138.84 ZM14.61 134.18 A3.82744 1.10166 -139.82 0 0 18.93 137.04 A5.54972
						 3.90092 0 0 1 13.35 138.86 A5.54972 3.90092 0 0 1 11.8 138.52 L11.76 138.51 A7.61654 1.89278 -147.84 0 0
						 2.7 132.7 A7.61654 1.89278 -2.16 0 0 11.89 132.57 A7.61654 1.89278 -2.16 0 0 13.21 132.26 A1.98425 3.40157
						 0 0 1 13.47 132.39 A3.82744 1.10166 -139.82 0 0 14.61 134.18 ZM8.09 150.05 C10.75 137.71 37.29 140.98 38.99
						 153.73 C46.37 139.13 46.37 130.62 43.24 117.63 C37.46 139.13 4.82 133.46 1.85 116.88 C-2.47 126.97 1.26
						 140.54 8.09 150.05 Z" class="st12"/>
		</g>
		<g id="shape46-66" v:mID="46" v:groupContext="shape" transform="translate(40.1455,-55.6063)">
			<title>Лист.46</title>
			<path d="M32.92 138.84 A5.54972 3.90092 0 0 1 27.18 137.04 A3.82744 1.10166 -40.18 0 0 31.79 133.86 A3.82744 1.10166
						 -40.18 0 0 32.6 132.55 A1.98425 3.40157 0 0 1 33.01 132.29 A7.61654 1.89278 -177.84 0 0 34.46 132.61 A7.61654
						 1.89278 -177.84 0 0 43.41 132.7 A7.61654 1.89278 -32.16 0 0 34.94 137.92 A7.61654 1.89278 -32.16 0 0 34.35
						 138.51 A5.54972 3.90092 0 0 1 32.92 138.84 ZM14.61 134.18 A3.82744 1.10166 -139.82 0 0 18.93 137.04 A5.54972
						 3.90092 0 0 1 13.35 138.86 A5.54972 3.90092 0 0 1 11.8 138.52 L11.76 138.51 A7.61654 1.89278 -147.84 0 0
						 2.7 132.7 A7.61654 1.89278 -2.16 0 0 11.89 132.57 A7.61654 1.89278 -2.16 0 0 13.21 132.26 A1.98425 3.40157
						 0 0 1 13.47 132.39 A3.82744 1.10166 -139.82 0 0 14.61 134.18 ZM8.09 150.05 C10.75 137.71 37.29 140.98 38.99
						 153.73 C46.37 139.13 46.37 130.62 43.24 117.63 C37.46 139.13 4.82 133.46 1.85 116.88 C-2.47 126.97 1.26
						 140.54 8.09 150.05 Z" class="st13"/>
		</g>
	</g>
</svg>
