<?xml version="1.0" encoding="UTF-8" standalone="no"?>
<!DOCTYPE svg PUBLIC "-//W3C//DTD SVG 1.0//EN" "http://www.w3.org/TR/2001/REC-SVG-20010904/DTD/svg10.dtd">
<!-- Создано Microsoft Visio 11.0, Экспорт SVG, версия 1.0 tomes2.svg Страница-1 -->
<svg xmlns="http://www.w3.org/2000/svg" xmlns:xlink="http://www.w3.org/1999/xlink" xmlns:ev="http://www.w3.org/2001/xml-events"
		xmlns:v="http://schemas.microsoft.com/visio/2003/SVGExtensions/" width="3.26146in" height="1.71313in"
		viewBox="0 0 234.825 123.345" xml:space="preserve" color-interpolation-filters="sRGB" class="st15">
	<v:documentProperties v:langID="1049" v:metric="true" v:viewMarkup="false"/>

	<style type="text/css">
	<![CDATA[
		.st1 {fill:#3064af;stroke:#000000;stroke-linecap:round;stroke-linejoin:round;stroke-width:0.75}
		.st2 {fill:#3064af;stroke:#000000;stroke-linecap:round;stroke-linejoin:round;stroke-width:0.25}
		.st3 {fill:url(#grad30-8);stroke:#404040;stroke-linecap:round;stroke-linejoin:round;stroke-width:0.25}
		.st4 {fill:url(#grad30-12);stroke:#000000;stroke-linecap:round;stroke-linejoin:round;stroke-width:0.75}
		.st5 {fill:url(#grad30-12);stroke:#000000;stroke-linecap:round;stroke-linejoin:round;stroke-width:0.5}
		.st6 {visibility:visible}
		.st7 {fill:#cdcdcd;fill-opacity:0.5;stroke:#cdcdcd;stroke-linecap:round;stroke-linejoin:round;stroke-opacity:0.5;stroke-width:0.25}
		.st8 {fill:url(#grad30-30);stroke:#404040;stroke-linecap:round;stroke-linejoin:round;stroke-width:0.25}
		.st9 {fill:url(#grad30-30);stroke:none;stroke-linecap:round;stroke-linejoin:round;stroke-width:0.25}
		.st10 {fill:url(#grad28-43);stroke:#404040;stroke-linecap:round;stroke-linejoin:round;stroke-width:0.25}
		.st11 {fill:#ffffcc;fill-opacity:0.5;stroke:#ffffcc;stroke-linecap:round;stroke-linejoin:round;stroke-opacity:0.5;stroke-width:0.25}
		.st12 {fill:url(#grad30-30);stroke:#000000;stroke-linecap:round;stroke-linejoin:round;stroke-width:0.25}
		.st13 {stroke:#000000;stroke-linecap:round;stroke-linejoin:round;stroke-width:1.5}
		.st14 {fill:url(#grad28-136);stroke:none;stroke-linecap:round;stroke-linejoin:round;stroke-width:0.25}
		.st15 {fill:none;fill-rule:evenodd;font-size:12;overflow:visible;stroke-linecap:square;stroke-miterlimit:3}
	]]>
	</style>

	<defs id="Patterns_And_Gradients">
		<linearGradient id="grad30-8" v:fillPattern="30" v:foreground="#f0f0f0" v:background="#ffffff" x1="0" y1="1" x2="0" y2="0">
			<stop offset="0" style="stop-color:#f0f0f0;stop-opacity:1"/>
			<stop offset="1" style="stop-color:#ffffff;stop-opacity:1"/>
		</linearGradient>
		<linearGradient id="grad30-12" v:fillPattern="30" v:foreground="#f4ead9" v:background="#fbf7f0" x1="0" y1="1" x2="0" y2="0">
			<stop offset="0" style="stop-color:#f4ead9;stop-opacity:1"/>
			<stop offset="1" style="stop-color:#fbf7f0;stop-opacity:1"/>
		</linearGradient>
		<linearGradient id="grad30-30" v:fillPattern="30" v:foreground="#000000" v:background="#000000" x1="0" y1="1" x2="0" y2="0">
			<stop offset="0" style="stop-color:#000000;stop-opacity:1"/>
			<stop offset="1" style="stop-color:#000000;stop-opacity:1"/>
		</linearGradient>
		<linearGradient id="grad28-43" v:fillPattern="28" v:foreground="#779fdb" v:background="#3064af" x1="0" y1="0" x2="0" y2="1">
			<stop offset="0" style="stop-color:#779fdb;stop-opacity:1"/>
			<stop offset="1" style="stop-color:#3064af;stop-opacity:1"/>
		</linearGradient>
		<linearGradient id="grad28-136" v:fillPattern="28" v:foreground="#a0bce7" v:foregroundOpacity="0.5" v:background="#3064af"
				v:backgroundOpacity="0.5" x1="0" y1="0" x2="0" y2="1">
			<stop offset="0" style="stop-color:#a0bce7;stop-opacity:0.5"/>
			<stop offset="1" style="stop-color:#3064af;stop-opacity:0.5"/>
		</linearGradient>
	</defs>
	<g v:mID="0" v:index="1" v:groupContext="foregroundPage">
		<title>Страница-1</title>
		<v:pageProperties v:drawingScale="0.0393701" v:pageScale="0.0393701" v:drawingUnits="24" v:shadowOffsetX="8.50394"
				v:shadowOffsetY="-8.50394"/>
		<g id="shape1-1" v:mID="1" v:groupContext="shape" transform="translate(0.75,-16.2961)">
			<title>Лист.1</title>
			<v:userDefs>
				<v:ud v:nameU="msvThemeColors" v:val="VT0(36):26"/>
				<v:ud v:nameU="msvThemeEffects" v:val="VT0(16):26"/>
			</v:userDefs>
			<path d="M134.55 117.7 C119.62 117.39 54.43 120.23 43.94 123.35 C28.91 95.28 13.04 72.61 0 65.24 C2.54 63.04 5.09 61.43
						 7.84 60.33 C38.76 70.41 72.82 79.18 101.77 96.35 C107.93 100 113.86 104.04 120.75 106.21 C122.73 106.83
						 124.78 107.3 126.42 108.02 C130.66 109.88 132.09 113.42 135.15 117.41 C134.85 117.42 134.64 117.53 134.55
						 117.7 Z" class="st1"/>
		</g>
		<g id="shape2-3" v:mID="2" v:groupContext="shape" transform="translate(142.482,-21.6819)">
			<title>Лист.2</title>
			<v:userDefs>
				<v:ud v:nameU="msvThemeColors" v:val="VT0(36):26"/>
				<v:ud v:nameU="msvThemeEffects" v:val="VT0(16):26"/>
			</v:userDefs>
			<path d="M0 121.64 C41.39 109.51 68.61 108.83 87.94 108.47 C87.31 109.17 87.31 110.31 87.87 111.44 C70.03 111.84 32.03
						 114.56 0 123.35 L0 121.64 L0 121.64 Z" class="st2"/>
		</g>
		<g id="shape3-5" v:mID="3" v:groupContext="shape" transform="translate(131.505,-15.1386)">
			<title>Лист.3</title>
			<v:userDefs>
				<v:ud v:nameU="msvThemeColors" v:val="VT0(36):26"/>
				<v:ud v:nameU="msvThemeEffects" v:val="VT0(16):26"/>
			</v:userDefs>
			<path d="M20.07 114.5 C23.45 116.8 24.06 118.46 23.4 119.67 C22.08 122.13 15.56 122.78 10.05 123.14 C6.01 123.41 2.51
						 123.54 0.98 122.69 C-0.93 121.63 0.21 119.07 2.2 116.09 C6.44 112.83 16.48 113.48 20.07 114.5 Z"
					class="st3"/>
		</g>
		<g id="shape4-9" v:mID="4" v:groupContext="shape" transform="translate(8.54528,-20.548)">
			<title>Лист.4</title>
			<v:userDefs>
				<v:ud v:nameU="msvThemeColors" v:val="VT0(36):26"/>
				<v:ud v:nameU="msvThemeEffects" v:val="VT0(16):26"/>
			</v:userDefs>
			<path d="M0 64.54 C1.84 60.98 1.84 55.31 2.13 46.81 C113.39 95.72 133.94 93.58 133.98 122.2 C97.09 119.09 68.74 119.09
						 40.39 123.35 C29.06 102.37 25.51 88.63 0 64.54 Z" class="st4"/>
		</g>
		<g id="shape5-13" v:mID="5" v:groupContext="shape" transform="translate(114.136,-26.2675)">
			<title>Лист.5</title>
			<v:userDefs>
				<v:ud v:nameU="msvThemeColors" v:val="VT0(36):26"/>
				<v:ud v:nameU="msvThemeEffects" v:val="VT0(16):26"/>
			</v:userDefs>
			<path d="M28.47 123.35 C60.66 114.89 68.03 112.06 117.35 109.22 C93.54 72.37 92.41 69.54 76.54 52.53 C31.18 69.54 2.83
						 74.85 0 103.55 C4.87 104.31 12.46 129.14 16.6 107.15 C17.23 103.81 17.78 99.38 28.47 123.35 Z" class="st5"/>
		</g>
		<g id="shape6-16" v:mID="6" v:groupContext="shape" transform="translate(114.136,-26.2173)">
			<title>Лист.6</title>
			<v:userDefs>
				<v:ud v:nameU="msvThemeColors" v:val="VT0(36):26"/>
				<v:ud v:nameU="msvThemeEffects" v:val="VT0(16):26"/>
			</v:userDefs>
			<path d="M28.35 123.35 C49.61 114.48 66.61 103.14 120.19 93.3 C98.08 58.15 92.41 55.31 76.54 38.31 C31.18 55.31 2.83
						 60.62 0 89.33 C4.87 90.08 9.45 101.49 20.16 108.79 C21.79 109.9 23.56 110.92 28.35 123.35 Z" class="st5"/>
		</g>
		<g id="shape7-19" v:mID="7" v:groupContext="shape" transform="translate(10.6713,-27.6347)">
			<title>Лист.7</title>
			<v:userDefs>
				<v:ud v:nameU="msvThemeColors" v:val="VT0(36):26"/>
				<v:ud v:nameU="msvThemeEffects" v:val="VT0(16):26"/>
			</v:userDefs>
			<path d="M0 53.9 C52.44 51.06 70.87 56.73 96.38 62.4 C113.39 85.08 123.43 101.91 131.81 123.35 C99.21 113.42 68.03 113.42
						 42.52 114.84 C34.02 89.33 25.51 77.99 0 53.9 Z" class="st4"/>
		</g>
		<g id="shape8-22" v:mID="8" v:groupContext="shape" transform="translate(107.431,-27.6347)">
			<title>Лист.8</title>
			<v:userDefs>
				<v:ud v:nameU="msvThemeColors" v:val="VT0(36):26"/>
				<v:ud v:nameU="msvThemeEffects" v:val="VT0(16):26"/>
			</v:userDefs>
			<path d="M35.05 123.35 C56.31 103.5 73.32 92.16 105.92 83.38 C87.78 59.57 69.62 44.7 44.97 28.38 C37.89 31.22 9.54 49.64
						 0 62.91 C11.58 79.1 15.74 83.3 27.35 106.33 C29.12 109.84 31.06 113.78 35.05 123.35 Z" class="st4"/>
		</g>
		<g id="shape9-25" v:mID="9" v:groupContext="shape" transform="translate(142.236,-27.0868)">
			<title>Лист.9</title>
			<v:userDefs>
				<v:ud v:nameU="msvThemeColors" v:val="VT0(36):26"/>
				<v:ud v:nameU="msvThemeEffects" v:val="VT0(16):26"/>
			</v:userDefs>
			<g id="shadow9-26" v:groupContext="shadow" v:shadowOffsetX="1.44" v:shadowOffsetY="-1.44" v:shadowType="1"
					transform="matrix(1,0,0,1,1.44,1.44)" class="st6">
				<path d="M59.93 86.14 C33.69 95.87 18.95 104.94 0 123.35 C29.16 107.77 32.84 102.95 68.28 94.45 C64.88 89.63 63.18
							 88.78 59.93 86.14 Z" class="st7"/>
			</g>
			<path d="M59.93 86.14 C33.69 95.87 18.95 104.94 0 123.35 C29.16 107.77 32.84 102.95 68.28 94.45 C64.88 89.63 63.18 88.78
						 59.93 86.14 Z" class="st8"/>
		</g>
		<g id="shape10-31" v:mID="10" v:groupContext="shape" transform="translate(144.45,-26.7535)">
			<title>Лист.10</title>
			<v:userDefs>
				<v:ud v:nameU="msvThemeColors" v:val="VT0(36):26"/>
				<v:ud v:nameU="msvThemeEffects" v:val="VT0(16):26"/>
			</v:userDefs>
			<path d="M70.27 97.85 C46.22 103.47 30.91 108.01 0 123.35 C37.15 111.13 41.97 110.28 75.99 106.87 C73.72 101.77 71.73
						 99.79 70.27 97.85 Z" class="st9"/>
		</g>
		<g id="shape11-34" v:mID="11" v:groupContext="shape" transform="translate(107.657,-29.0877)">
			<title>Лист.11</title>
			<v:userDefs>
				<v:ud v:nameU="msvThemeColors" v:val="VT0(36):26"/>
				<v:ud v:nameU="msvThemeEffects" v:val="VT0(16):26"/>
			</v:userDefs>
			<path d="M34.25 123.35 C24.62 91.07 19.38 82.57 0 64.05 C6.48 78.03 22.35 103.54 34.25 123.35 Z" class="st9"/>
		</g>
		<g id="shape12-37" v:mID="12" v:groupContext="shape" transform="translate(142.482,-23.3827)">
			<title>Лист.12</title>
			<v:userDefs>
				<v:ud v:nameU="msvThemeColors" v:val="VT0(36):26"/>
				<v:ud v:nameU="msvThemeEffects" v:val="VT0(16):26"/>
			</v:userDefs>
			<path d="M0 120.51 C41.39 108.38 68.61 107.7 89.01 106.34 C88.63 108.4 89.29 107.19 87.87 110.31 C70.03 110.71 32.03
						 113.42 0 123.35 L0 120.51 L0 120.51 Z" class="st9"/>
		</g>
		<g id="shape13-40" v:mID="13" v:groupContext="shape" transform="translate(183.585,-0.257428)">
			<title>Лист.13</title>
			<v:userDefs>
				<v:ud v:nameU="msvThemeColors" v:val="VT0(36):26"/>
				<v:ud v:nameU="msvThemeEffects" v:val="VT0(16):26"/>
			</v:userDefs>
			<path d="M0 90.82 C5.07 90.53 3.24 106.98 4.28 115.49 C4.76 119.41 5.86 121.65 9.02 123.35 C8.23 119.79 9.82 117.42 11.79
						 115.83 C11.27 115 13.77 120.58 18.12 119.79 C12.98 111.09 22.07 92.11 12.75 89.58 C7.09 89.45 5.1 89.73
						 0 90.82 Z" class="st10"/>
		</g>
		<g id="shape14-44" v:mID="14" v:groupContext="shape" transform="translate(8.31094,-20.6887)">
			<title>Лист.14</title>
			<v:userDefs>
				<v:ud v:nameU="msvThemeColors" v:val="VT0(36):26"/>
				<v:ud v:nameU="msvThemeEffects" v:val="VT0(16):26"/>
			</v:userDefs>
			<g id="shadow14-45" v:groupContext="shadow" v:shadowOffsetX="1.44" v:shadowOffsetY="-1.44" v:shadowType="1"
					transform="matrix(1,0,0,1,1.44,1.44)" class="st6">
				<path d="M1.56 60.13 C-0.19 61.12 -0.19 63.96 0.23 64.54 C25.75 88.63 29.29 102.37 40.63 123.35 C42.12 123.12 43.61
							 122.91 45.11 122.71 C29.39 96.5 25.26 82.86 1.56 60.13 Z" class="st11"/>
			</g>
			<path d="M1.56 60.13 C-0.19 61.12 -0.19 63.96 0.23 64.54 C25.75 88.63 29.29 102.37 40.63 123.35 C42.12 123.12 43.61 122.91
						 45.11 122.71 C29.39 96.5 25.26 82.86 1.56 60.13 Z" class="st12"/>
		</g>
		<g id="shape15-49" v:mID="15" v:groupContext="shape" transform="translate(9.7928,-80.7447)">
			<title>Лист.15</title>
			<v:userDefs>
				<v:ud v:nameU="msvThemeColors" v:val="VT0(36):26"/>
				<v:ud v:nameU="msvThemeEffects" v:val="VT0(16):26"/>
			</v:userDefs>
			<g id="shadow15-50" v:groupContext="shadow" v:shadowOffsetX="1.44" v:shadowOffsetY="-1.44" v:shadowType="1"
					transform="matrix(1,0,0,1,1.44,1.44)" class="st6">
				<path d="M8.81 123.35 C9.52 121.74 9.95 119.77 10.23 117.37 C7.49 114.41 4.44 111.37 0.96 108.14 C0.96 108.15 0.96
							 108.16 0.96 108.16 C0.95 108.16 0.95 108.15 0.94 108.14 C-0.54 110.41 0.03 112.68 0.62 114.5 C-0.12
							 114.27 0.32 114.69 0.75 115.11 C0.75 115.11 0.75 115.11 0.75 115.11 C3.72 117.97 6.38 120.7 8.81 123.35
							 Z" class="st11"/>
			</g>
			<path d="M8.81 123.35 C9.52 121.74 9.95 119.77 10.23 117.37 C7.49 114.41 4.44 111.37 0.96 108.14 C0.96 108.15 0.96 108.16
						 0.96 108.16 C0.95 108.16 0.95 108.15 0.94 108.14 C-0.54 110.41 0.03 112.68 0.62 114.5 C-0.12 114.27 0.32
						 114.69 0.75 115.11 C0.75 115.11 0.75 115.11 0.75 115.11 C3.72 117.97 6.38 120.7 8.81 123.35 Z"
					class="st12"/>
		</g>
		<g id="shape16-54" v:mID="16" v:groupContext="shape" transform="translate(9.36977,-68.8122)">
			<title>Лист.16</title>
			<v:userDefs>
				<v:ud v:nameU="msvThemeColors" v:val="VT0(36):26"/>
				<v:ud v:nameU="msvThemeEffects" v:val="VT0(16):26"/>
			</v:userDefs>
			<g id="shadow16-55" v:groupContext="shadow" v:shadowOffsetX="1.44" v:shadowOffsetY="-1.44" v:shadowType="1"
					transform="matrix(1,0,0,1,1.44,1.44)" class="st6">
				<path d="M14.62 122.85 C14.53 123.4 14.54 123.36 14.55 123.33 C14.55 123.32 14.54 123.32 14.53 123.31 C14.56 123.25
							 14.59 123.19 14.62 123.13 C15.04 121.94 15.32 120.57 15.51 119 C11.63 114.22 7.2 109.38 1.71 104.07
							 C1.71 104.06 1.71 104.05 1.71 104.05 C1.55 103.89 1.38 103.72 1 103.27 C-0.4 105.28 -0.12 106.98 0.55
							 108.07 C0.93 108.97 0.93 108.98 0.55 108.11 C6.69 113.22 10.76 118.92 14.62 122.85 Z" class="st11"/>
			</g>
			<path d="M14.62 122.85 C14.53 123.4 14.54 123.36 14.55 123.33 C14.55 123.32 14.54 123.32 14.53 123.31 C14.56 123.25 14.59
						 123.19 14.62 123.13 C15.04 121.94 15.32 120.57 15.51 119 C11.63 114.22 7.2 109.38 1.71 104.07 C1.71 104.06
						 1.71 104.05 1.71 104.05 C1.55 103.89 1.38 103.72 1 103.27 C-0.4 105.28 -0.12 106.98 0.55 108.07 C0.93 108.97
						 0.93 108.98 0.55 108.11 C6.69 113.22 10.76 118.92 14.62 122.85 Z" class="st12"/>
		</g>
		<g id="shape17-59" v:mID="17" v:groupContext="shape" transform="translate(133.317,-16.054)">
			<title>Лист.17</title>
			<v:userDefs>
				<v:ud v:nameU="msvThemeColors" v:val="VT0(36):26"/>
				<v:ud v:nameU="msvThemeEffects" v:val="VT0(16):26"/>
			</v:userDefs>
			<path d="M9.55 111.41 C19.79 116.57 20.23 118.59 19.69 119.94 C18.59 122.69 13.44 122.71 8.46 123.07 C4.81 123.32 1.26
						 123.76 0.28 122.57 C-0.93 121.1 1.86 117.12 7.06 111.14 C8.05 111.43 7.87 111.37 9.55 111.41 Z"
					class="st9"/>
		</g>
		<g id="shape18-62" v:mID="18" v:groupContext="shape" transform="translate(44.5441,-22.9817) rotate(-4.72081)">
			<title>Лист.18</title>
			<v:userDefs>
				<v:ud v:nameU="msvThemeColors" v:val="VT0(36):26"/>
				<v:ud v:nameU="msvThemeEffects" v:val="VT0(16):26"/>
			</v:userDefs>
			<path d="M0 123.35 A22.0302 2.9102 7.19 0 1 13.57 123.35" class="st13"/>
		</g>
		<g id="shape19-66" v:mID="19" v:groupContext="shape" transform="translate(52.256,-26.1758) rotate(-1.48787)">
			<title>Лист.19</title>
			<v:userDefs>
				<v:ud v:nameU="msvThemeColors" v:val="VT0(36):26"/>
				<v:ud v:nameU="msvThemeEffects" v:val="VT0(16):26"/>
			</v:userDefs>
			<path d="M0 123.35 A36.6463 6.44278 9.78 0 1 22.42 123.35" class="st13"/>
		</g>
		<g id="shape20-70" v:mID="20" v:groupContext="shape" transform="translate(56.3091,-29.052)">
			<title>Лист.20</title>
			<v:userDefs>
				<v:ud v:nameU="msvThemeColors" v:val="VT0(36):26"/>
				<v:ud v:nameU="msvThemeEffects" v:val="VT0(16):26"/>
			</v:userDefs>
			<path d="M-0 123.35 A50.6152 6.4875 6.96 0 1 31.18 123.35" class="st13"/>
		</g>
		<g id="shape21-74" v:mID="21" v:groupContext="shape" transform="translate(55.1752,-31.8866)">
			<title>Лист.21</title>
			<v:userDefs>
				<v:ud v:nameU="msvThemeColors" v:val="VT0(36):26"/>
				<v:ud v:nameU="msvThemeEffects" v:val="VT0(16):26"/>
			</v:userDefs>
			<path d="M-0 123.35 A58.785 6.49994 5.96 0 1 36.28 123.35" class="st13"/>
		</g>
		<g id="shape22-78" v:mID="22" v:groupContext="shape" transform="translate(54.6083,-34.1543)">
			<title>Лист.22</title>
			<v:userDefs>
				<v:ud v:nameU="msvThemeColors" v:val="VT0(36):26"/>
				<v:ud v:nameU="msvThemeEffects" v:val="VT0(16):26"/>
			</v:userDefs>
			<path d="M0 123.35 A74.2495 6.51309 4.7 0 1 45.92 123.35" class="st13"/>
		</g>
		<g id="shape23-82" v:mID="23" v:groupContext="shape" transform="translate(42.7519,-58.7161) rotate(-38.6598)">
			<title>Лист.23</title>
			<v:userDefs>
				<v:ud v:nameU="msvThemeColors" v:val="VT0(36):26"/>
				<v:ud v:nameU="msvThemeEffects" v:val="VT0(16):26"/>
			</v:userDefs>
			<path d="M0 123.35 C7.97 122.46 9.3 121.71 18.15 123.35" class="st13"/>
		</g>
		<g id="shape24-86" v:mID="24" v:groupContext="shape" transform="translate(68.9603,-70.6984) rotate(-33.6901)">
			<title>Лист.24</title>
			<v:userDefs>
				<v:ud v:nameU="msvThemeColors" v:val="VT0(36):26"/>
				<v:ud v:nameU="msvThemeEffects" v:val="VT0(16):26"/>
			</v:userDefs>
			<path d="M0 123.35 C4.49 122.91 5.23 122.55 10.22 123.35" class="st13"/>
		</g>
		<g id="shape25-90" v:mID="25" v:groupContext="shape" transform="translate(51.809,-45.5071) rotate(-40.0303)">
			<title>Лист.25</title>
			<v:userDefs>
				<v:ud v:nameU="msvThemeColors" v:val="VT0(36):26"/>
				<v:ud v:nameU="msvThemeEffects" v:val="VT0(16):26"/>
			</v:userDefs>
			<path d="M0 123.35 C4.06 122.91 4.74 122.55 9.26 123.35" class="st13"/>
		</g>
		<g id="shape26-94" v:mID="26" v:groupContext="shape" transform="translate(77.5243,-64.027) rotate(-33.3407)">
			<title>Лист.26</title>
			<v:userDefs>
				<v:ud v:nameU="msvThemeColors" v:val="VT0(36):26"/>
				<v:ud v:nameU="msvThemeEffects" v:val="VT0(16):26"/>
			</v:userDefs>
			<path d="M0 123.35 C5.66 122.91 6.6 122.55 12.89 123.35" class="st13"/>
		</g>
		<g id="shape27-98" v:mID="27" v:groupContext="shape" transform="translate(107.689,-82.1776) rotate(-25.56)">
			<title>Лист.27</title>
			<v:userDefs>
				<v:ud v:nameU="msvThemeColors" v:val="VT0(36):26"/>
				<v:ud v:nameU="msvThemeEffects" v:val="VT0(16):26"/>
			</v:userDefs>
			<path d="M0 123.35 C3.7 122.91 4.31 122.55 8.42 123.35" class="st13"/>
		</g>
		<g id="shape28-102" v:mID="28" v:groupContext="shape" transform="translate(68.4751,-34.9971) rotate(-36.8699)">
			<title>Лист.28</title>
			<v:userDefs>
				<v:ud v:nameU="msvThemeColors" v:val="VT0(36):26"/>
				<v:ud v:nameU="msvThemeEffects" v:val="VT0(16):26"/>
			</v:userDefs>
			<path d="M0 123.35 C3.11 122.91 3.63 122.55 7.09 123.35" class="st13"/>
		</g>
		<g id="shape29-106" v:mID="29" v:groupContext="shape" transform="translate(94.7668,-52.3295) rotate(-29.3578)">
			<title>Лист.29</title>
			<v:userDefs>
				<v:ud v:nameU="msvThemeColors" v:val="VT0(36):26"/>
				<v:ud v:nameU="msvThemeEffects" v:val="VT0(16):26"/>
			</v:userDefs>
			<path d="M0 123.35 C6.85 122.91 8 122.55 15.61 123.35" class="st13"/>
		</g>
		<g id="shape30-110" v:mID="30" v:groupContext="shape" transform="translate(71.8767,-29.0443) rotate(-36.8699)">
			<title>Лист.30</title>
			<v:userDefs>
				<v:ud v:nameU="msvThemeColors" v:val="VT0(36):26"/>
				<v:ud v:nameU="msvThemeEffects" v:val="VT0(16):26"/>
			</v:userDefs>
			<path d="M0 123.35 C5.26 122.91 6.13 122.55 11.98 123.35" class="st13"/>
		</g>
		<g id="shape31-114" v:mID="31" v:groupContext="shape" transform="translate(105.464,-83.2464) rotate(6.5198)">
			<title>Лист.31</title>
			<v:userDefs>
				<v:ud v:nameU="msvThemeColors" v:val="VT0(36):26"/>
				<v:ud v:nameU="msvThemeEffects" v:val="VT0(16):26"/>
			</v:userDefs>
			<path d="M0 123.35 C4.38 122.91 5.11 122.55 9.99 123.35" class="st13"/>
		</g>
		<g id="shape32-118" v:mID="32" v:groupContext="shape" transform="translate(90.4405,-84.9472) rotate(6.5198)">
			<title>Лист.32</title>
			<v:userDefs>
				<v:ud v:nameU="msvThemeColors" v:val="VT0(36):26"/>
				<v:ud v:nameU="msvThemeEffects" v:val="VT0(16):26"/>
			</v:userDefs>
			<path d="M0 123.35 C4.38 122.81 5.11 122.36 9.99 123.35" class="st13"/>
		</g>
		<g id="shape33-122" v:mID="33" v:groupContext="shape" transform="translate(43.2697,-86.0284)">
			<title>Лист.33</title>
			<v:userDefs>
				<v:ud v:nameU="msvThemeColors" v:val="VT0(36):26"/>
				<v:ud v:nameU="msvThemeEffects" v:val="VT0(16):26"/>
			</v:userDefs>
			<path d="M0 123.35 C6.47 122.99 7.55 122.69 14.74 123.35" class="st13"/>
		</g>
		<g id="shape34-126" v:mID="34" v:groupContext="shape" transform="translate(63.1122,-68.737)">
			<title>Лист.34</title>
			<v:userDefs>
				<v:ud v:nameU="msvThemeColors" v:val="VT0(36):26"/>
				<v:ud v:nameU="msvThemeEffects" v:val="VT0(16):26"/>
			</v:userDefs>
			<path d="M0 123.35 C4.98 122.81 5.81 122.36 11.34 123.35" class="st13"/>
		</g>
		<g id="shape35-130" v:mID="35" v:groupContext="shape" transform="translate(46.6207,-26.679) rotate(-23)">
			<title>Лист.35</title>
			<v:userDefs>
				<v:ud v:nameU="msvThemeColors" v:val="VT0(36):26"/>
				<v:ud v:nameU="msvThemeEffects" v:val="VT0(16):26"/>
			</v:userDefs>
			<path d="M11.52 112.29 C9.6 114.38 8.47 116.42 3.72 117.6 C12.3 117.45 11.76 117.3 21.6 123.35 C13.59 114.86 14.51 115.4
						 13.3 112.43 C20.93 120.59 24.65 112.95 22.5 107.62 C21.2 104.38 17.73 101.99 14.45 104.47 C19.28 98.34 14.42
						 96.89 10.15 96.88 C5.77 96.88 2.01 98.4 9.86 106.04 C-2.02 94.84 -2.84 110.51 5.66 113.43 C6.89 113.86 8.32
						 114.01 11.52 112.29 Z" class="st12"/>
		</g>
		<g id="shape36-133" v:mID="36" v:groupContext="shape" transform="translate(183.585,-0.25)">
			<title>Лист.36</title>
			<v:userDefs>
				<v:ud v:nameU="msvThemeColors" v:val="VT0(36):26"/>
				<v:ud v:nameU="msvThemeEffects" v:val="VT0(16):26"/>
			</v:userDefs>
			<path d="M0 90.82 C5.07 90.53 3.24 106.98 4.28 115.49 C4.76 119.41 5.86 121.65 9.02 123.35 C8.23 119.79 9.82 117.42 11.79
						 115.83 C11.27 115 13.77 120.58 18.12 119.79 C12.98 111.09 22.07 92.11 12.75 89.58 C7.09 89.45 5.1 89.73
						 0 90.82 Z" class="st14"/>
		</g>
	</g>
</svg>
